<svg xmlns="http://www.w3.org/2000/svg" viewBox="0 0 177.84 249.84"><defs><style>.cls-2{fill:#231f20}</style></defs><path id="symbols" d="M102.25 15.67c5.7 12.05 15.2 19.3 15.2 27.5 0 4.45-2.95 7.25-6.55 7.25-6.1 0-8.25-7.8-8.25-13.3h-.8c0 5.5-2.1 13.25-8.2 13.25-3.65 0-6.6-2.8-6.6-7.2 0-8.2 9.45-15.45 15.2-27.5m.4 27c-.15 6.75.85 11.4 2.55 15.2h-5.9c1.65-3.8 2.65-8.45 2.55-15.2zm41.47 34.5c0 4.4-2.95 7.2-6.6 7.2-6.1 0-8.2-7.75-8.2-13.25h-.8c0 5.5-2.15 13.3-8.25 13.3-3.6 0-6.55-2.8-6.55-7.25 0-8.2 9.5-15.45 15.2-27.5 5.75 12.05 15.2 19.3 15.2 27.5m-14.8-.5c-.1 6.75.9 11.4 2.55 15.2h-5.9c1.7-3.8 2.7-8.45 2.55-15.2zm-53.73-27c5.7 12.05 15.2 19.3 15.2 27.5 0 4.45-2.95 7.25-6.55 7.25-6.1 0-8.25-7.8-8.25-13.3h-.8c0 5.5-2.1 13.25-8.2 13.25-3.65 0-6.6-2.8-6.6-7.2 0-8.2 9.45-15.45 15.2-27.5m.4 27c-.15 6.75.85 11.4 2.55 15.2h-5.9c1.65-3.8 2.65-8.45 2.55-15.2zm41.46 37.75c0 4.4-2.95 7.2-6.6 7.2-6.1 0-8.2-7.75-8.2-13.25h-.8c0 5.5-2.15 13.3-8.25 13.3-3.6 0-6.55-2.8-6.55-7.25 0-8.2 9.5-15.45 15.2-27.5 5.75 12.05 15.2 19.3 15.2 27.5m-14.8-.5c-.1 6.75.9 11.4 2.55 15.2h-5.9c1.7-3.8 2.7-8.45 2.55-15.2zm-38.53.5c0 4.4-2.95 7.2-6.6 7.2-6.1 0-8.2-7.75-8.2-13.25h-.8c0 5.5-2.15 13.3-8.25 13.3-3.6 0-6.55-2.8-6.55-7.25 0-8.2 9.5-15.45 15.2-27.5 5.75 12.05 15.2 19.3 15.2 27.5m-14.8-.5c-.1 6.75.9 11.4 2.55 15.2h-5.9c1.7-3.8 2.7-8.45 2.55-15.2zm26.27 120.25c-5.7-12.05-15.2-19.3-15.2-27.5 0-4.45 2.95-7.25 6.55-7.25 6.1 0 8.25 7.8 8.25 13.3h.8c0-5.5 2.1-13.25 8.2-13.25 3.65 0 6.6 2.8 6.6 7.2 0 8.2-9.45 15.45-15.2 27.5m-.4-27c.15-6.75-.85-11.4-2.55-15.2h5.9c-1.65 3.8-2.65 8.45-2.55 15.2zm-41.47-34.5c0-4.4 2.95-7.2 6.6-7.2 6.1 0 8.2 7.75 8.2 13.25h.8c0-5.5 2.15-13.3 8.25-13.3 3.6 0 6.55 2.8 6.55 7.25 0 8.2-9.5 15.45-15.2 27.5-5.75-12.05-15.2-19.3-15.2-27.5m14.8.5c.1-6.75-.9-11.4-2.55-15.2h5.9c-1.7 3.8-2.7 8.45-2.55 15.2zm53.73 27c-5.7-12.05-15.2-19.3-15.2-27.5 0-4.45 2.95-7.25 6.55-7.25 6.1 0 8.25 7.8 8.25 13.3h.8c0-5.5 2.1-13.25 8.2-13.25 3.65 0 6.6 2.8 6.6 7.2 0 8.2-9.45 15.45-15.2 27.5m-.4-27c.15-6.75-.85-11.4-2.55-15.2h5.9c-1.65 3.8-2.65 8.45-2.55 15.2zm-41.46-37.75c0-4.4 2.95-7.2 6.6-7.2 6.1 0 8.2 7.75 8.2 13.25h.8c0-5.5 2.15-13.3 8.25-13.3 3.6 0 6.55 2.8 6.55 7.25 0 8.2-9.5 15.45-15.2 27.5-5.75-12.05-15.2-19.3-15.2-27.5m14.8.5c.1-6.75-.9-11.4-2.55-15.2h5.9c-1.7 3.8-2.7 8.45-2.55 15.2zm38.53-.5c0-4.4 2.95-7.2 6.6-7.2 6.1 0 8.2 7.75 8.2 13.25h.8c0-5.5 2.15-13.3 8.25-13.3 3.6 0 6.55 2.8 6.55 7.25 0 8.2-9.5 15.45-15.2 27.5-5.75-12.05-15.2-19.3-15.2-27.5m14.8.5c.1-6.75-.9-11.4-2.55-15.2h5.9c-1.7 3.8-2.7 8.45-2.55 15.2z" class="cls-2"/><g id="numbers"><path d="M158.42 206.28c-3.08-6.51-8.21-10.42-8.21-14.85 0-2.4 1.59-3.91 3.54-3.91 3.29 0 4.45 4.21 4.45 7.18h.43c0-2.97 1.13-7.15 4.43-7.15 1.97 0 3.56 1.51 3.56 3.89 0 4.43-5.1 8.34-8.21 14.85Zm-.21-14.57c.08-3.64-.46-6.15-1.38-8.21h3.19c-.89 2.05-1.43 4.56-1.38 8.21zM10.26 36.75v-2.64h2.36V16.75h-2.2v-3.26h5.33v20.62h1.95v2.64zm19.76-5.46c0 3.91-1.77 6.05-5.67 6.05s-5.67-2.17-5.67-6.05v-12.4c0-3.88 1.58-6.05 5.67-6.05s5.67 2.14 5.67 6.05zm-3.26-11.94c0-2.6-.68-3.81-2.42-3.81s-2.45 1.09-2.45 3.78v11.53c0 2.7.71 3.78 2.45 3.78s2.42-1.21 2.42-3.81zm121.07 199.2c0-3.91 1.77-6.05 5.67-6.05s5.67 2.17 5.67 6.05v12.4c0 3.88-1.58 6.05-5.67 6.05s-5.67-2.14-5.67-6.05zm3.25 11.94c0 2.6.68 3.81 2.42 3.81s2.45-1.09 2.45-3.78v-11.53c0-2.7-.71-3.78-2.45-3.78s-2.42 1.21-2.42 3.81zm16.5-17.4v2.64h-2.36v17.36h2.2v3.26h-5.33v-20.62h-1.95v-2.64zM19.42 41.56c3.08 6.51 8.21 10.42 8.21 14.85 0 2.4-1.59 3.91-3.54 3.91-3.29 0-4.45-4.21-4.45-7.18h-.43c0 2.97-1.13 7.15-4.43 7.15-1.97 0-3.56-1.51-3.56-3.89 0-4.43 5.1-8.34 8.21-14.85Zm.21 14.57c-.08 3.64.46 6.15 1.38 8.21h-3.19c.89-2.05 1.43-4.56 1.38-8.21z" class="cls-2"/><path d="M0 0h177.84v249.84H0z" style="fill:none"/></g></svg>