<svg xmlns="http://www.w3.org/2000/svg" viewBox="0 0 177.84 249.84"><defs><style>.cls-2{fill:#ce0e2d}</style></defs><path id="symbols" d="M104.2 38.67c-7.05 6.4-10.65 12.05-15.3 22.25-4.7-10.2-8.4-15.85-15.25-22.25 6.85-6.55 10.55-11.95 15.3-21.75 4.6 9.8 8.2 15.2 15.25 21.75m0 87c-7.05 6.4-10.65 12.05-15.3 22.25-4.7-10.2-8.4-15.85-15.25-22.25 6.85-6.55 10.55-11.95 15.3-21.75 4.6 9.8 8.2 15.2 15.25 21.75m-61.53-16.03c6.4 7.05 12.05 10.65 22.25 15.3-10.2 4.7-15.85 8.4-22.25 15.25-6.55-6.85-11.95-10.55-21.75-15.3 9.8-4.6 15.2-8.2 21.75-15.25m30.97 101.53c7.05-6.4 10.65-12.05 15.3-22.25 4.7 10.2 8.4 15.85 15.25 22.25-6.85 6.55-10.55 11.95-15.3 21.75-4.6-9.8-8.2-15.2-15.25-21.75M127.5 90c-9.51-.46-16.05.99-26.55 4.91 3.89-10.54 5.27-17.15 4.95-26.52 9.48.21 15.91-.99 26.2-4.56-3.68 10.18-4.95 16.55-4.6 26.17M71.99 68.34c-.46 9.51.99 16.05 4.91 26.55-10.54-3.89-17.15-5.27-26.52-4.95.21-9.48-.99-15.91-4.56-26.2 10.18 3.68 16.55 4.95 26.17 4.6m-21.65 91.5c9.51.46 16.05-.99 26.55-4.91-3.89 10.54-5.27 17.15-4.95 26.52-9.48-.21-15.91.99-26.2 4.56 3.68-10.18 4.95-16.55 4.6-26.17m55.51 21.66c.46-9.51-.99-16.05-4.91-26.55 10.54 3.89 17.15 5.27 26.52 4.95-.21 9.48.99 15.91 4.56 26.2-10.18-3.68-16.55-4.95-26.17-4.6m29.32-41.3c-6.4-7.05-12.05-10.65-22.25-15.3 10.2-4.7 15.85-8.4 22.25-15.25 6.55 6.85 11.95 10.55 21.75 15.3-9.8 4.6-15.2 8.2-21.75 15.25" class="cls-2"/><g id="numbers"><path d="M27.66 54.35c-3.81 3.46-5.75 6.51-8.26 12.01-2.54-5.51-4.54-8.56-8.23-12.01 3.7-3.54 5.7-6.45 8.26-11.74 2.48 5.29 4.43 8.21 8.23 11.74m122.52 141.14c3.81-3.46 5.75-6.5 8.26-12.01 2.54 5.51 4.54 8.56 8.23 12.01-3.7 3.54-5.7 6.45-8.26 11.74-2.48-5.29-4.43-8.21-8.23-11.74m8.13 17.14c3.54 0 5.46 2.05 5.46 4.31v1.15h-2.82v-.43c0-1.61-.96-2.54-2.7-2.54-1.61 0-3.04.78-3.04 4.09v3.26c.71-1.08 1.8-1.8 3.41-1.8 3.53 0 5.95 2.79 5.95 7.01v1.89c0 4.96-2.08 7.29-6.11 7.29s-6.2-2.11-6.2-7.6v-9.49c0-5.98 3.1-7.13 6.05-7.13Zm.16 21.52c1.98 0 3.1-1.8 3.1-4.56v-1.58c0-2.26-.93-4.43-3.22-4.43s-3.01 2.23-3.01 4.5v1.67c0 2.88 1.15 4.4 3.13 4.4M19.53 37.21c-3.54 0-5.46-2.05-5.46-4.31v-1.15h2.82v.43c0 1.61.96 2.54 2.7 2.54 1.61 0 3.04-.78 3.04-4.09v-3.26c-.71 1.08-1.8 1.8-3.41 1.8-3.53 0-5.95-2.79-5.95-7.01v-1.89c0-4.96 2.08-7.29 6.11-7.29s6.2 2.11 6.2 7.6v9.49c0 5.98-3.1 7.13-6.05 7.13Zm-.15-21.52c-1.98 0-3.1 1.8-3.1 4.56v1.58c0 2.26.93 4.43 3.22 4.43s3.01-2.23 3.01-4.5v-1.67c0-2.88-1.15-4.4-3.13-4.4" class="cls-2"/><path d="M0 0h177.84v249.84H0z" style="fill:none"/></g></svg>