<svg xmlns="http://www.w3.org/2000/svg" viewBox="0 0 177.84 249.84"><defs><clipPath id="clippath"><path d="M19.42 18.42h139v213h-139z" class="cls-1"/></clipPath><clipPath id="clippath-1"><path d="M18.8 118.52h28.22V95.93c-9.53.45-18.9 4.04-28.22 8.7z" class="cls-1"/></clipPath><clipPath id="clippath-2"><path d="M60.33 125.94h-15.6V73.32l15.66-5.84z" class="cls-1"/></clipPath><clipPath id="clippath-3"><path d="m79.99 121.73-67.69 15-2.84-59.41h70.53z" class="cls-1"/></clipPath><clipPath id="clippath-4"><path d="M100.22 69.5c0 11.61-9.42 16.41-16.19 16.41-8.09 0-21.44-6.76-23.25-19.06l7.96-2.93L81 68.05h9.24l5.63-3.54z" class="cls-24"/></clipPath><clipPath id="clippath-5"><path d="M159.04 131.32h-28.22v22.59c9.53-.45 18.9-4.04 28.22-8.7z" class="cls-1"/></clipPath><clipPath id="clippath-6"><path d="M117.51 123.9h15.6v52.62l-15.66 5.84z" class="cls-1"/></clipPath><clipPath id="clippath-7"><path d="m97.85 128.11 67.69-15 2.84 59.41H97.85z" class="cls-1"/></clipPath><clipPath id="clippath-8"><path d="M77.62 180.34c0-11.61 9.42-16.41 16.19-16.41 8.09 0 21.44 6.76 23.25 19.06l-7.96 2.93-12.26-4.13H87.6l-5.63 3.54z" class="cls-24"/></clipPath><style>.cls-1,.cls-11,.cls-12,.cls-13,.cls-14,.cls-15,.cls-16,.cls-17,.cls-2,.cls-3,.cls-4,.cls-5,.cls-6,.cls-7,.cls-8{fill:none}.cls-18,.cls-19,.cls-20{fill:#004a98}.cls-13,.cls-14,.cls-15,.cls-16,.cls-17,.cls-18,.cls-21,.cls-22,.cls-23,.cls-24,.cls-25,.cls-26,.cls-27,.cls-28,.cls-29,.cls-30,.cls-5,.cls-6,.cls-7,.cls-8{stroke:#004a98}.cls-12,.cls-14,.cls-18,.cls-21,.cls-23,.cls-25,.cls-26,.cls-27,.cls-28,.cls-29,.cls-30,.cls-4,.cls-5,.cls-6,.cls-7,.cls-8{stroke-linecap:round;stroke-linejoin:round}.cls-14,.cls-18,.cls-23,.cls-25,.cls-28,.cls-30,.cls-4{stroke-width:.75px}.cls-30,.cls-31{fill:#231f20}.cls-2{stroke:#ce0e2d}.cls-11,.cls-13,.cls-15,.cls-16,.cls-17,.cls-2,.cls-20,.cls-22,.cls-24,.cls-3,.cls-32{stroke-miterlimit:10}.cls-21,.cls-23,.cls-24,.cls-32,.cls-33{fill:#ffcd00}.cls-13,.cls-21,.cls-24,.cls-27,.cls-29,.cls-6{stroke-width:.6px}.cls-22,.cls-25,.cls-26,.cls-27,.cls-34{fill:#fff}.cls-28,.cls-29,.cls-35{fill:#ce0e2d}.cls-11,.cls-20,.cls-3,.cls-32{stroke:#ffcd00}.cls-16,.cls-3{stroke-width:6px}.cls-12,.cls-4{stroke:#fff}.cls-20,.cls-26,.cls-5{stroke-width:.5px}.cls-7{stroke-width:.25px}.cls-11,.cls-8{stroke-width:2px}.cls-15{stroke-width:3px}.cls-17{stroke-width:5px}</style></defs><g id="flippies_copy" data-name="flippies copy" style="clip-path:url(#clippath)"><path d="m161.16 143.45 1.37-38.2-2.21-.19-.35-15.8-56.85-16.42-4.5-5.18-18.63 1.62-11.24-5.36-51.63 19.37.04 9.59-.78-.07.3 13.58-1.37 38.2 2.21.19.35 15.8L74.72 177l4.5 5.18 18.63-1.62 11.24 5.36 51.22-18.83.37-10.13.78.07z" class="cls-28"/><path d="m177.84 93.65-99.62 42.78L38.7 166.3 0 154.37l86.65-34.94 54.64-35.59z" class="cls-19"/><path d="m109.87 116.2-42.95 18.03" style="fill:none;stroke-miterlimit:10;stroke:#ffcd00;stroke-dasharray:1 2;stroke-width:10px"/><path d="m12.4 85.5 33.95-12.78.76 28.84.57 25.9-33.65 5.83z" class="cls-31"/><g style="clip-path:url(#clippath-1)"><circle cx="36.76" cy="122.63" r="21.34" class="cls-15"/><circle cx="36.76" cy="122.63" r="21.34" class="cls-11"/><circle cx="36.76" cy="122.63" r="18" class="cls-32"/></g><path d="m47.02 124.16-34.67-5.74v-10.63l34.67 5.74z" class="cls-19"/><path d="m47.35 124.16-36.22-5.68v-2.1l36.22 5.69z" class="cls-22"/><path d="m13.51 112.37 32.84 5.42" class="cls-16"/><path d="m13.51 112.37.99.17" class="cls-3"/><path d="m42.07 120.13-1.87-.31.98-5.92 1.87.31zm-4.68-.78-1.87-.31.98-5.92 1.87.31zm-4.68-.77-1.87-.31.98-5.92 1.87.31zm-4.67-.77-1.87-.31.98-5.92 1.87.31zm-4.68-.77-1.87-.31.98-5.92 1.87.31zm-4.68-.77-1.87-.31.98-5.92 1.87.31z" class="cls-33"/><path d="m45.36 117.63.99.16" class="cls-3"/><g style="clip-path:url(#clippath-2)"><path d="m58.02 127.27-1.46-58.69m-.61 59.24-1.43-58.55m-.64 59.1-1.4-58.42m-.66 58.96-1.38-58.28m-.69 58.83L48.4 71.32M47.68 130l-1.33-58" class="cls-4"/><path d="m57.66 83.32-11.95-4v-3.8l11.95 4zm.99 36.11-11.95-4v-3.8l11.95 4z" class="cls-34"/></g><path id="SVGID" d="M100.22 69.5c0 11.61-9.3 16.16-15.67 16.16-7.32 0-22.51-6.51-23.32-18.97" class="cls-17"/><path d="m56.22 43.3-9.6 5.86-4.04 22.2 13.98-17.59z" class="cls-28"/><path d="m58.18 32.49-10.36.85-18.77 24.65 26.38-13.25z" class="cls-18"/><path d="m104.32 35.19 6.68 7.83 1.03 27.61-11.22-23.38z" class="cls-28"/><path d="m68.45 57.59.29 6.33-18.13 6.66s-.2-7.19 0-13.29c.88-27.25 16.47-34.54 31.83-35.04l-14 35.33Z" class="cls-27"/><path d="M79.4 22.45c-13.32 4.54-15.58 23.41-13.32 42.79" class="cls-6"/><path d="M75.53 23.66C62.6 28.95 60.14 47.1 62.4 66.47" class="cls-6"/><path d="M71.65 24.88c-12.54 6.05-15.2 23.47-12.94 42.84" class="cls-6"/><path d="M67.78 26.09c-12.15 6.8-15.01 23.5-12.75 42.87" class="cls-6"/><path d="m87.3 20.49 10.9 5.68 5.1 6.32c2.05 16.67 2.93 34.11-.18 40.34l-7.25-8.33v-3.58l-27.42-3.33L87.3 20.5Z" class="cls-27"/><path d="M100.79 69.78c2.62-9.19 2.37-22.98.56-39.27m-3.11 36.87c2.62-9.19 2.37-22.98.56-39.27" class="cls-6"/><path d="M93.79 23.75c1.41.54 6.63 7.99 6.33 9.5-.13.65-.5 2.33-.5 2.33s-.15 6-.5 9.67-2.5 14.5-2.5 14.5-5.12 4.31-6.75 5c-1.32.29-4.15.4-6.24 0-5.84-1.58-15.18-7.17-15.18-7.17s-1.01-11.83.89-19.14c2.8-10.82 12.58-15.69 13.61-15.69 3.63-.21 7.26-.84 10.83 1Z" class="cls-27"/><path d="M79.85 19.49 35.79 29.57l20.28 5.88 25.4-13.1zm13.62-.7 25.72 18.92 3.28 22.07-32.18-38.44z" class="cls-23"/><path d="m90.88 13.92 3.6 6.45-4.44 3.3-4.23-1.42-.46-5.16zm-9.09 4.69-9.11-3.19H50.85l12.41 4.34 19.2 3.12z" class="cls-23"/><path d="m105.87 12.42-15.25 4.92-2.08-.5.83-1.5 5.67-2.92z" class="cls-23"/><path d="m89.37 15.34-2.25 3.5.25 3.91-4.91.13-5.76-5.79 5.25-3.17zm.92 2.58 34.83 5 4.95 14.79z" class="cls-23"/><path d="m90.03 55.89-2.15 1-1.45-.03-2.4-1.08.35-.19h5.25zm-8.78-.96s3.52-2.14 4.8-2.14c.54 0 1.19.18 2.01.18s1.18-.03 1.58-.03c.81 0 2.06 2.05 2.06 2.05s-2.51-.41-4.23-.41c-2.92 0-6.23.34-6.23.34ZM72.87 32.2s6.46-2.33 9.33-2.33c1.49 0 2.97 1.01 3.43 1.18.33-.27.89-.39.89-.39l-.43 2.97s-.56-1.12-1.31-1.22c-1.41-.19-3.39-.42-5.27-.17s-7.25.96-7.25.96l.6-.99Zm26.95.64s-3-2.5-5.87-2.5c-.91 0-2.27.4-3.44.46-.74.04-1.6-.25-1.6-.25l.58 2.8s.65-.76 1.4-.86c1.41-.19 3.67-.51 5.55-.26s3.97 1.61 3.97 1.61l-.6-.99Z" class="cls-19"/><path d="M89.37 31.37v5.93c1.99 1.75 2.33 12.26 2.33 12.26s-.99.92-2.46.46c-.97-.3-2.57-.42-3.43-.18" class="cls-6"/><path d="M91.36 33.89s6.9-1.52 7.85 2.64m-9.02 1.75s.89 3.91 4.98 3.99" class="cls-5"/><path d="M99.45 37.06s-1.34 2.51-4.95 2.51c-1.88 0-3.7-.49-4.31-1.29l-.15-1.44" class="cls-14"/><path d="M97.09 36.36c.2.46.24 1 .06 1.52-.37 1.1-1.57 1.68-2.66 1.3s-1.68-1.57-1.3-2.66c.07-.21.18-.41.31-.58" class="cls-26"/><circle cx="95.17" cy="37.2" r="1.25" class="cls-19"/><path d="M90.53 35.71c-.89 0-.82-.01-.82-.01l-.29.82s.36.32.88.32c1.8 0 2.59-.57 4.33-.56s4.87.81 5.9 1.33-.39-1.09-.39-1.09-3.69-1.51-6.06-1.45-2.67.65-3.56.65Z" class="cls-19"/><path d="M84.29 34.22s-7.17-2.98-10.98 2.04m10.64 2.19s-.26 4.8-3.59 4.8" class="cls-5"/><path d="M73.59 37.01s3.69 2.53 6.77 2.53c1.6 0 3.07-.29 3.59-1.1l.71-2.07" class="cls-14"/><path d="M82.28 36.25c.2.46.24 1 .06 1.52-.37 1.1-1.57 1.68-2.66 1.3s-1.68-1.57-1.3-2.66c.07-.21.18-.41.31-.58" class="cls-26"/><circle cx="80.36" cy="37.09" r="1.25" class="cls-19"/><path d="M84.57 35.63c.89 0 1.55-.24 1.55-.24v.71s-.25.54-2.04.54-2.25-.64-3.99-.62-6.14.82-7.17 1.34.39-1.09.39-1.09 4.46-1.73 6.83-1.67 3.54 1.04 4.43 1.04Z" class="cls-19"/><path d="M77.23 119.37c8.21-3.84 29.96-24.93 27.92-45.95l31.23 9.03-26.51 25.21z" class="cls-30"/><path d="M80.5 59.7c1.34-.79 3.08-.34 3.87 1s.34 3.08-1 3.87m10-4.87c-1.34-.79-3.08-.34-3.87 1s-.34 3.08 1 3.87" class="cls-5"/><circle cx="70.01" cy="56.24" r=".72" class="cls-19"/><path d="M74.07 60.66a5.786 5.786 0 0 0 2.05-7.91 5.795 5.795 0 0 0-7.91-2.05" class="cls-5"/><path d="M68.35 45.98c4.32-1.25 9.12.53 11.5 4.58 2.36 4.02 1.62 9.02-1.5 12.2" class="cls-5"/><path d="M68.19 48.32c3.58-1.44 7.78-.09 9.8 3.34 2 3.4 1.18 7.67-1.75 10.12" class="cls-5"/><path d="M71.94 52.95c-.71.34-1.13.7-1.75 1.39-.13-.92-.28-1.46-.67-2.13.7-.35 1.12-.69 1.73-1.36.13.89.28 1.4.69 2.09Zm1.79 2.82c-.74-.27-1.3-.31-2.22-.25.56-.74.83-1.23 1.03-1.98.75.24 1.28.3 2.19.27-.54.72-.79 1.19-.99 1.96Zm-.74 3.25c-.34-.71-.7-1.13-1.39-1.75.92-.13 1.46-.28 2.13-.67.35.7.69 1.12 1.36 1.73-.89.13-1.4.28-2.09.69Z" class="cls-19"/><path d="M97.09 57.33c-.44-1.48-.29-3.14.56-4.57.1-.17.21-.34.32-.49m1-5.99a9.98 9.98 0 0 0-5.05 4.29c-2.08 3.54-1.75 7.85.49 10.99" class="cls-5"/><path d="M98.62 48.83a7.94 7.94 0 0 0-2.84 2.83 7.92 7.92 0 0 0 .31 8.53" class="cls-5"/><path d="M113.52 84.05c-1.88 1.05-2.95 2.11-4.5 4.12-.52-2.48-1.05-3.91-2.23-5.67 1.84-1.09 2.93-2.1 4.47-4.01.52 2.39 1.03 3.76 2.25 5.56Zm12.09 3.81c-1.88 1.05-2.95 2.11-4.5 4.12-.52-2.48-1.05-3.91-2.23-5.67 1.84-1.09 2.93-2.1 4.47-4.01.52 2.39 1.03 3.76 2.25 5.56Zm-16.17 11.16c-1.88 1.05-2.95 2.11-4.5 4.12-.52-2.48-1.05-3.91-2.23-5.67 1.84-1.09 2.93-2.1 4.47-4.01.52 2.39 1.03 3.76 2.25 5.56Zm8.12-5.66c-1.88 1.05-2.95 2.11-4.5 4.12-.52-2.48-1.05-3.91-2.23-5.67 1.84-1.09 2.93-2.1 4.47-4.01.52 2.39 1.03 3.76 2.25 5.56Z" class="cls-33"/><path d="m77.4 26.09 10.82 3.01 7.24-1.69" class="cls-5"/><path d="m79.4 24.55 8.91 2.43 5.65-1.25" class="cls-5"/><g style="clip-path:url(#clippath-3)"><path d="M36.76 168.57c-22.49 0-39.94-24.7-39.94-45.94s17.92-39.94 39.94-39.94 39.94 17.92 39.94 39.94-17.45 45.94-39.94 45.94m0-72.37c-14.58 0-26.44 11.86-26.44 26.44s11.86 26.44 26.44 26.44 26.44-11.86 26.44-26.44S51.34 96.2 36.76 96.2" class="cls-19"/><path d="M36.76 83.69c21.47 0 38.94 17.47 38.94 38.94 0 10.52-4.31 21.99-11.53 30.67-7.65 9.2-17.39 14.27-27.41 14.27S17 162.5 9.35 153.3c-7.22-8.68-11.53-20.15-11.53-30.67 0-21.47 17.47-38.94 38.94-38.94m0 66.38c15.13 0 27.44-12.31 27.44-27.44S51.89 95.19 36.76 95.19 9.32 107.5 9.32 122.63s12.31 27.44 27.44 27.44m0-68.38c-22.61 0-40.94 18.33-40.94 40.94s18.33 46.94 40.94 46.94 40.94-24.33 40.94-46.94-18.33-40.94-40.94-40.94m0 66.38c-14.05 0-25.44-11.39-25.44-25.44s11.39-25.44 25.44-25.44 25.44 11.39 25.44 25.44-11.39 25.44-25.44 25.44" class="cls-33"/><path d="M36.76 81.69c-22.61 0-40.94 18.33-40.94 40.94s18.33 46.94 40.94 46.94 40.94-24.33 40.94-46.94-18.33-40.94-40.94-40.94m0 66.38c-14.05 0-25.44-11.39-25.44-25.44s11.39-25.44 25.44-25.44 25.44 11.39 25.44 25.44-11.39 25.44-25.44 25.44" class="cls-8"/><path d="M36.76 81.69c-22.61 0-40.94 18.33-40.94 40.94s18.33 46.94 40.94 46.94 40.94-24.33 40.94-46.94-18.33-40.94-40.94-40.94m0 66.38c-14.05 0-25.44-11.39-25.44-25.44s11.39-25.44 25.44-25.44 25.44 11.39 25.44 25.44-11.39 25.44-25.44 25.44" class="cls-12"/><path d="M36.76 85.87c-1.28 0-2.32 1.04-2.32 2.32v7.53h4.64v-7.53c0-1.28-1.04-2.32-2.32-2.32Z" class="cls-20"/><path d="M36.76 87.71c-1.28 0-2.32 1.04-2.32 2.32v5.64h4.64v-5.64c0-1.28-1.04-2.32-2.32-2.32Z" class="cls-20"/><path d="M36.76 89.13c-.7 0-1.27.57-1.27 1.27v5.26h2.54V90.4c0-.7-.57-1.27-1.27-1.27" class="cls-33"/><path d="M30.37 86.43c-1.26.22-2.1 1.42-1.88 2.69l1.31 7.41 4.57-.8-1.31-7.41a2.32 2.32 0 0 0-2.69-1.88Z" class="cls-20"/><path d="M30.69 88.24c-1.26.22-2.1 1.42-1.88 2.69l.98 5.55 4.57-.8-.98-5.55a2.32 2.32 0 0 0-2.69-1.88Z" class="cls-20"/><path d="M30.94 89.64c-.69.12-1.15.78-1.03 1.47l.91 5.18 2.5-.44-.91-5.18a1.27 1.27 0 0 0-1.47-1.03" class="cls-33"/><path d="M24.18 88.08a2.33 2.33 0 0 0-1.39 2.97l2.57 7.07 4.36-1.59-2.57-7.07a2.33 2.33 0 0 0-2.97-1.39Z" class="cls-20"/><path d="M24.81 89.81a2.33 2.33 0 0 0-1.39 2.97l1.93 5.3 4.36-1.59-1.93-5.3a2.33 2.33 0 0 0-2.97-1.39Z" class="cls-20"/><path d="M25.3 91.15c-.66.24-1 .97-.76 1.63l1.8 4.94 2.38-.87-1.8-4.94c-.24-.66-.97-1-1.63-.76Z" class="cls-33"/><path d="M18.37 90.79a2.32 2.32 0 0 0-.85 3.17l3.76 6.52 4.01-2.32-3.76-6.52a2.32 2.32 0 0 0-3.17-.85Z" class="cls-20"/><path d="M19.29 92.39a2.32 2.32 0 0 0-.85 3.17l2.82 4.88 4.01-2.32-2.82-4.88a2.32 2.32 0 0 0-3.17-.85Z" class="cls-20"/><path d="M20.01 93.62c-.61.35-.81 1.13-.46 1.73l2.63 4.55 2.2-1.27-2.63-4.55c-.35-.61-1.13-.81-1.73-.46Z" class="cls-33"/><path d="M13.13 94.47c-.98.82-1.11 2.28-.29 3.27l4.84 5.77 3.55-2.98-4.84-5.77a2.326 2.326 0 0 0-3.27-.29Z" class="cls-20"/><path d="M14.31 95.88c-.98.82-1.11 2.28-.29 3.27l3.62 4.32 3.55-2.98-3.62-4.32a2.326 2.326 0 0 0-3.27-.29Z" class="cls-20"/><path d="M15.22 96.97a1.27 1.27 0 0 0-.16 1.79l3.38 4.03 1.94-1.63L17 97.13a1.27 1.27 0 0 0-1.79-.16Z" class="cls-33"/><path d="M8.59 99c-.82.98-.69 2.44.29 3.27l5.77 4.84 2.98-3.55-5.77-4.84c-.98-.82-2.44-.69-3.27.29Z" class="cls-20"/><path d="M10 100.18c-.82.98-.69 2.44.29 3.27l4.32 3.62 2.98-3.55-4.32-3.62c-.98-.82-2.44-.69-3.27.29Z" class="cls-20"/><path d="M11.1 101.1c-.45.54-.38 1.34.16 1.79l4.03 3.38 1.63-1.94-4.03-3.38a1.27 1.27 0 0 0-1.79.16Z" class="cls-33"/><path d="M4.92 104.25c-.64 1.11-.26 2.53.85 3.17l6.52 3.76 2.32-4.01-6.52-3.76a2.32 2.32 0 0 0-3.17.85Z" class="cls-20"/><path d="M6.51 105.17c-.64 1.11-.26 2.53.85 3.17l4.88 2.82 2.32-4.01-4.88-2.82a2.32 2.32 0 0 0-3.17.85Z" class="cls-20"/><path d="M7.75 105.88c-.35.61-.14 1.38.46 1.73l4.55 2.63 1.27-2.2-4.55-2.63a1.27 1.27 0 0 0-1.73.46Z" class="cls-33"/><path d="M2.21 110.06c-.44 1.2.18 2.53 1.39 2.97l7.07 2.57 1.59-4.36-7.07-2.57c-1.2-.44-2.53.18-2.97 1.39Z" class="cls-20"/><path d="M3.94 110.69c-.44 1.2.18 2.53 1.39 2.97l5.3 1.93 1.59-4.36-5.3-1.93c-1.2-.44-2.53.18-2.97 1.39Z" class="cls-20"/><path d="M5.28 111.17c-.24.66.1 1.39.76 1.63l4.94 1.8.87-2.38-4.94-1.8c-.66-.24-1.39.1-1.63.76Z" class="cls-33"/><path d="M.55 116.25a2.33 2.33 0 0 0 1.88 2.69l7.41 1.31.8-4.57-7.41-1.31a2.33 2.33 0 0 0-2.69 1.88Z" class="cls-20"/><path d="M2.36 116.57a2.33 2.33 0 0 0 1.88 2.69l5.55.98.8-4.57-5.55-.98a2.33 2.33 0 0 0-2.69 1.88Z" class="cls-20"/><path d="M3.77 116.82c-.12.69.34 1.35 1.03 1.47l5.18.91.44-2.5-5.18-.91a1.27 1.27 0 0 0-1.47 1.03" class="cls-33"/><path d="M0 122.63c0 1.28 1.04 2.32 2.32 2.32h7.53v-4.64H2.31c-1.28 0-2.32 1.04-2.32 2.32Z" class="cls-20"/><path d="M1.83 122.63c0 1.28 1.04 2.32 2.32 2.32h5.64v-4.64H4.15c-1.28 0-2.32 1.04-2.32 2.32Z" class="cls-20"/><path d="M3.26 122.63c0 .7.57 1.27 1.27 1.27h5.26v-2.54H4.53c-.7 0-1.27.57-1.27 1.27" class="cls-33"/><path d="M.55 129.02c.22 1.26 1.42 2.1 2.69 1.88l7.41-1.31-.8-4.57-7.41 1.31c-1.26.22-2.1 1.42-1.88 2.69Z" class="cls-20"/><path d="M2.36 128.7c.22 1.26 1.42 2.1 2.69 1.88l5.55-.98-.8-4.57-5.55.98c-1.26.22-2.1 1.42-1.88 2.69Z" class="cls-20"/><path d="M3.77 128.45c.12.69.78 1.15 1.47 1.03l5.18-.91-.44-2.5-5.18.91c-.69.12-1.15.78-1.03 1.47" class="cls-33"/><path d="M2.21 135.21a2.33 2.33 0 0 0 2.97 1.39l7.07-2.57-1.59-4.36-7.07 2.57a2.33 2.33 0 0 0-1.39 2.97Z" class="cls-20"/><path d="M3.94 134.58a2.33 2.33 0 0 0 2.97 1.39l5.3-1.93-1.59-4.36-5.3 1.93a2.33 2.33 0 0 0-1.39 2.97Z" class="cls-20"/><path d="M5.28 134.09c.24.66.97 1 1.63.76l4.94-1.8-.87-2.38-4.94 1.8c-.66.24-1 .97-.76 1.63Z" class="cls-33"/><path d="M4.92 141.01a2.32 2.32 0 0 0 3.17.85l6.52-3.76-2.32-4.01-6.52 3.76a2.32 2.32 0 0 0-.85 3.17Z" class="cls-20"/><path d="M6.51 140.09a2.32 2.32 0 0 0 3.17.85l4.88-2.82-2.32-4.01-4.88 2.82a2.32 2.32 0 0 0-.85 3.17Z" class="cls-20"/><path d="M7.75 139.38c.35.61 1.13.81 1.73.46l4.55-2.63-1.27-2.2-4.55 2.63c-.61.35-.81 1.13-.46 1.73Z" class="cls-33"/><path d="M8.59 146.26c.82.98 2.28 1.11 3.27.29l5.77-4.84-2.98-3.55L8.88 143c-.98.82-1.11 2.28-.29 3.27Z" class="cls-20"/><path d="M10 145.08c.82.98 2.28 1.11 3.27.29l4.32-3.62-2.98-3.55-4.32 3.62c-.98.82-1.11 2.28-.29 3.27Z" class="cls-20"/><path d="M11.1 144.16c.45.54 1.25.61 1.79.16l4.03-3.38-1.63-1.94-4.03 3.38a1.27 1.27 0 0 0-.16 1.79Z" class="cls-33"/><path d="M13.13 150.79c.98.82 2.44.69 3.27-.29l4.84-5.77-3.55-2.98-4.84 5.77c-.82.98-.69 2.44.29 3.27Z" class="cls-20"/><path d="M14.31 149.39c.98.82 2.44.69 3.27-.29l3.62-4.32-3.55-2.98-3.62 4.32c-.82.98-.69 2.44.29 3.27Z" class="cls-20"/><path d="M15.22 148.29c.54.45 1.34.38 1.79-.16l3.38-4.03-1.94-1.63-3.38 4.03c-.45.54-.38 1.34.16 1.79Z" class="cls-33"/><path d="M18.37 154.47c1.11.64 2.53.26 3.17-.85l3.76-6.52-4.01-2.32-3.76 6.52c-.64 1.11-.26 2.53.85 3.17Z" class="cls-20"/><path d="M19.29 152.88c1.11.64 2.53.26 3.17-.85l2.82-4.88-4.01-2.32-2.82 4.88c-.64 1.11-.26 2.53.85 3.17Z" class="cls-20"/><path d="M20.01 151.64c.61.35 1.38.14 1.73-.46l2.63-4.55-2.2-1.27-2.63 4.55c-.35.61-.14 1.38.46 1.73Z" class="cls-33"/><path d="M24.18 157.18c1.2.44 2.53-.18 2.97-1.39l2.57-7.07-4.36-1.59-2.57 7.07c-.44 1.2.18 2.53 1.39 2.97Z" class="cls-20"/><path d="M24.81 155.45c1.2.44 2.53-.18 2.97-1.39l1.93-5.3-4.36-1.59-1.93 5.3c-.44 1.2.18 2.53 1.39 2.97Z" class="cls-20"/><path d="M25.3 154.11c.66.24 1.39-.1 1.63-.76l1.8-4.94-2.38-.87-1.8 4.94c-.24.66.1 1.39.76 1.63Z" class="cls-33"/><path d="M30.37 158.84a2.33 2.33 0 0 0 2.69-1.88l1.31-7.41-4.57-.8-1.31 7.41a2.33 2.33 0 0 0 1.88 2.69Z" class="cls-20"/><path d="M30.69 157.03a2.33 2.33 0 0 0 2.69-1.88l.98-5.55-4.57-.8-.98 5.55a2.33 2.33 0 0 0 1.88 2.69Z" class="cls-20"/><path d="M30.94 155.62c.69.12 1.35-.34 1.47-1.03l.91-5.18-2.5-.44-.91 5.18c-.12.69.34 1.35 1.03 1.47" class="cls-33"/><path d="M36.76 159.4c1.28 0 2.32-1.04 2.32-2.32v-7.53h-4.64v7.53c0 1.28 1.04 2.32 2.32 2.32Z" class="cls-20"/><path d="M36.76 157.56c1.28 0 2.32-1.04 2.32-2.32v-5.64h-4.64v5.64c0 1.28 1.04 2.32 2.32 2.32Z" class="cls-20"/><path d="M36.76 156.13c.7 0 1.27-.57 1.27-1.27v-5.26h-2.54v5.26c0 .7.57 1.27 1.27 1.27" class="cls-33"/><path d="M43.14 158.84c1.26-.22 2.1-1.42 1.88-2.69l-1.31-7.41-4.57.8 1.31 7.41c.22 1.26 1.42 2.1 2.69 1.88Z" class="cls-20"/><path d="M42.82 157.03c1.26-.22 2.1-1.42 1.88-2.69l-.98-5.55-4.57.8.98 5.55c.22 1.26 1.42 2.1 2.69 1.88Z" class="cls-20"/><path d="M42.57 155.62a1.27 1.27 0 0 0 1.03-1.47l-.91-5.18-2.5.44.91 5.18c.12.69.78 1.15 1.47 1.03" class="cls-33"/><path d="M49.33 157.18a2.33 2.33 0 0 0 1.39-2.97l-2.57-7.07-4.36 1.59 2.57 7.07a2.33 2.33 0 0 0 2.97 1.39Z" class="cls-20"/><path d="M48.7 155.45a2.33 2.33 0 0 0 1.39-2.97l-1.93-5.3-4.36 1.59 1.93 5.3a2.33 2.33 0 0 0 2.97 1.39Z" class="cls-20"/><path d="M48.21 154.11c.66-.24 1-.97.76-1.63l-1.8-4.94-2.38.87 1.8 4.94c.24.66.97 1 1.63.76Z" class="cls-33"/><path d="M55.14 154.47c1.11-.64 1.49-2.06.85-3.17l-3.76-6.52-4.01 2.32 3.76 6.52a2.32 2.32 0 0 0 3.17.85Z" class="cls-20"/><path d="M54.22 152.88c1.11-.64 1.49-2.06.85-3.17l-2.82-4.88-4.01 2.32 2.82 4.88a2.32 2.32 0 0 0 3.17.85Z" class="cls-20"/><path d="M53.51 151.64c.61-.35.81-1.13.46-1.73l-2.63-4.55-2.2 1.27 2.63 4.55c.35.61 1.13.81 1.73.46Z" class="cls-33"/><path d="M60.39 150.79c.98-.82 1.11-2.28.29-3.27l-4.84-5.77-3.55 2.98 4.84 5.77c.82.98 2.28 1.11 3.27.29Z" class="cls-20"/><path d="M59.21 149.39c.98-.82 1.11-2.28.29-3.27l-3.62-4.32-3.55 2.98 3.62 4.32c.82.98 2.28 1.11 3.27.29Z" class="cls-20"/><path d="M58.29 148.29c.54-.45.61-1.25.16-1.79l-3.38-4.03-1.94 1.63 3.38 4.03c.45.54 1.25.61 1.79.16Z" class="cls-33"/><path d="M64.92 146.26c.82-.98.69-2.44-.29-3.27l-5.77-4.84-2.98 3.55 5.77 4.84c.98.82 2.44.69 3.27-.29Z" class="cls-20"/><path d="M63.51 145.08c.82-.98.69-2.44-.29-3.27l-4.32-3.62-2.98 3.55 4.32 3.62c.98.82 2.44.69 3.27-.29Z" class="cls-20"/><path d="M62.42 144.16c.45-.54.38-1.34-.16-1.79l-4.03-3.38-1.63 1.94 4.03 3.38c.54.45 1.34.38 1.79-.16Z" class="cls-33"/><path d="M68.6 141.01c.64-1.11.26-2.53-.85-3.17l-6.52-3.76-2.32 4.01 6.52 3.76c1.11.64 2.53.26 3.17-.85Z" class="cls-20"/><path d="M67 140.09c.64-1.11.26-2.53-.85-3.17l-4.88-2.82-2.32 4.01 4.88 2.82c1.11.64 2.53.26 3.17-.85Z" class="cls-20"/><path d="M65.77 139.38c.35-.61.14-1.38-.46-1.73l-4.55-2.63-1.27 2.2 4.55 2.63c.61.35 1.38.14 1.73-.46Z" class="cls-33"/><path d="M71.3 135.21c.44-1.2-.18-2.53-1.39-2.97l-7.07-2.57-1.59 4.36 7.07 2.57c1.2.44 2.53-.18 2.97-1.39Z" class="cls-20"/><path d="M69.57 134.58c.44-1.2-.18-2.53-1.39-2.97l-5.3-1.93-1.59 4.36 5.3 1.93c1.2.44 2.53-.18 2.97-1.39Z" class="cls-20"/><path d="M68.23 134.09c.24-.66-.1-1.39-.76-1.63l-4.94-1.8-.87 2.38 4.94 1.8c.66.24 1.39-.1 1.63-.76Z" class="cls-33"/><path d="M72.96 129.02a2.33 2.33 0 0 0-1.88-2.69l-7.41-1.31-.8 4.57 7.41 1.31a2.33 2.33 0 0 0 2.69-1.88Z" class="cls-20"/><path d="M71.15 128.7a2.33 2.33 0 0 0-1.88-2.69l-5.55-.98-.8 4.57 5.55.98a2.33 2.33 0 0 0 2.69-1.88Z" class="cls-20"/><path d="M69.75 128.45a1.27 1.27 0 0 0-1.03-1.47l-5.18-.91-.44 2.5 5.18.91c.69.12 1.35-.34 1.47-1.03" class="cls-33"/><path d="M73.52 122.63c0-1.28-1.04-2.32-2.32-2.32h-7.53v4.64h7.53c1.28 0 2.32-1.04 2.32-2.32Z" class="cls-20"/><path d="M71.68 122.63c0-1.28-1.04-2.32-2.32-2.32h-5.64v4.64h5.64c1.28 0 2.32-1.04 2.32-2.32Z" class="cls-20"/><path d="M70.25 122.63c0-.7-.57-1.27-1.27-1.27h-5.26v2.54h5.26c.7 0 1.27-.57 1.27-1.27" class="cls-33"/><path d="M72.96 116.25a2.32 2.32 0 0 0-2.69-1.88l-7.41 1.31.8 4.57 7.41-1.31c1.26-.22 2.1-1.42 1.88-2.69Z" class="cls-20"/><path d="M71.15 116.57a2.32 2.32 0 0 0-2.69-1.88l-5.55.98.8 4.57 5.55-.98c1.26-.22 2.1-1.42 1.88-2.69Z" class="cls-20"/><path d="M69.75 116.82a1.27 1.27 0 0 0-1.47-1.03l-5.18.91.44 2.5 5.18-.91a1.27 1.27 0 0 0 1.03-1.47" class="cls-33"/><path d="M71.3 110.06a2.33 2.33 0 0 0-2.97-1.39l-7.07 2.57 1.59 4.36 7.07-2.57a2.33 2.33 0 0 0 1.39-2.97Z" class="cls-20"/><path d="M69.57 110.69a2.33 2.33 0 0 0-2.97-1.39l-5.3 1.93 1.59 4.36 5.3-1.93a2.33 2.33 0 0 0 1.39-2.97Z" class="cls-20"/><path d="M68.23 111.17c-.24-.66-.97-1-1.63-.76l-4.94 1.8.87 2.38 4.94-1.8c.66-.24 1-.97.76-1.63Z" class="cls-33"/><path d="M68.6 104.25a2.32 2.32 0 0 0-3.17-.85l-6.52 3.76 2.32 4.01 6.52-3.76c1.11-.64 1.49-2.06.85-3.17Z" class="cls-20"/><path d="M67 105.17a2.32 2.32 0 0 0-3.17-.85l-4.88 2.82 2.32 4.01 4.88-2.82c1.11-.64 1.49-2.06.85-3.17Z" class="cls-20"/><path d="M65.77 105.88c-.35-.61-1.13-.81-1.73-.46l-4.55 2.63 1.27 2.2 4.55-2.63c.61-.35.81-1.13.46-1.73Z" class="cls-33"/><path d="M64.92 99a2.326 2.326 0 0 0-3.27-.29l-5.77 4.84 2.98 3.55 5.77-4.84c.98-.82 1.11-2.28.29-3.27Z" class="cls-20"/><path d="M63.51 100.18a2.326 2.326 0 0 0-3.27-.29l-4.32 3.62 2.98 3.55 4.32-3.62c.98-.82 1.11-2.28.29-3.27Z" class="cls-20"/><path d="M62.42 101.1a1.27 1.27 0 0 0-1.79-.16l-4.03 3.38 1.63 1.94 4.03-3.38c.54-.45.61-1.25.16-1.79Z" class="cls-33"/><path d="M60.39 94.47c-.98-.82-2.44-.69-3.27.29l-4.84 5.77 3.55 2.98 4.84-5.77c.82-.98.69-2.44-.29-3.27Z" class="cls-20"/><path d="M59.21 95.88c-.98-.82-2.44-.69-3.27.29l-3.62 4.32 3.55 2.98 3.62-4.32c.82-.98.69-2.44-.29-3.27Z" class="cls-20"/><path d="M58.29 96.97a1.27 1.27 0 0 0-1.79.16l-3.38 4.03 1.94 1.63 3.38-4.03c.45-.54.38-1.34-.16-1.79Z" class="cls-33"/><path d="M55.14 90.79a2.32 2.32 0 0 0-3.17.85l-3.76 6.52 4.01 2.32 3.76-6.52c.64-1.11.26-2.53-.85-3.17Z" class="cls-20"/><path d="M54.22 92.39a2.32 2.32 0 0 0-3.17.85l-2.82 4.88 4.01 2.32 2.82-4.88c.64-1.11.26-2.53-.85-3.17Z" class="cls-20"/><path d="M53.51 93.62a1.27 1.27 0 0 0-1.73.46l-2.63 4.55 2.2 1.27 2.63-4.55c.35-.61.14-1.38-.46-1.73Z" class="cls-33"/><path d="M49.33 88.08c-1.2-.44-2.53.18-2.97 1.39l-2.57 7.07 4.36 1.59 2.57-7.07c.44-1.2-.18-2.53-1.39-2.97Z" class="cls-20"/><path d="M48.7 89.81c-1.2-.44-2.53.18-2.97 1.39l-1.93 5.3 4.36 1.59 1.93-5.3c.44-1.2-.18-2.53-1.39-2.97Z" class="cls-20"/><path d="M48.21 91.15c-.66-.24-1.39.1-1.63.76l-1.8 4.94 2.38.87 1.8-4.94c.24-.66-.1-1.39-.76-1.63Z" class="cls-33"/><path d="M43.14 86.43a2.33 2.33 0 0 0-2.69 1.88l-1.31 7.41 4.57.8 1.31-7.41a2.33 2.33 0 0 0-1.88-2.69Z" class="cls-20"/><path d="M42.82 88.24a2.33 2.33 0 0 0-2.69 1.88l-.98 5.55 4.57.8.98-5.55a2.33 2.33 0 0 0-1.88-2.69Z" class="cls-20"/><path d="M42.57 89.64a1.27 1.27 0 0 0-1.47 1.03l-.91 5.18 2.5.44.91-5.18a1.27 1.27 0 0 0-1.03-1.47" class="cls-33"/></g><path d="M12.25 136.43c50.93 0 99.28-17.95 131.93-51.72l-6.59-1.84c-31.72 34.56-81.04 47.05-124.1 47.05l-1.24 6.52Z" class="cls-25"/><path d="M12.25 134.02c50.93 0 96.31-15.78 129.95-49.89l-5.82-1.68c-31.72 34.56-79.82 45.05-122.89 45.05z" class="cls-23"/><path d="M100.22 69.5c0 11.61-9.42 16.41-16.19 16.41-8.09 0-21.44-6.76-23.25-19.06l7.96-2.93L81 68.05h9.24l5.63-3.54z" class="cls-33"/><path d="M64.37 64.57c1.68 6.45 8.12 16.82 19.66 16.8 7.86 0 12.82-6.11 14.32-14.39" class="cls-2" style="clip-path:url(#clippath-4)"/><path d="M100.22 69.5c0 11.61-9.42 16.41-16.19 16.41-8.09 0-21.44-6.76-23.25-19.06l7.96-2.93L81 68.05h9.24l5.63-3.54z" class="cls-13"/><path d="M84.03 77.65c-11.4 0-15.43-13.67-15.43-13.67l12.41 4.07h9.24l5.63-3.54s-.44 13.15-11.84 13.15Z" class="cls-19"/><path d="M85.76 81.33s-3.8 2.42-3.97 7.26 3.97 15.32 3.97 15.32 4.23-11.32 3.98-15.32c-.22-3.5-3.98-7.26-3.98-7.26m-6.93-.7s-3.12.96-4.17 4.32-.16 11.47-.16 11.47 5.13-7.11 5.72-9.95c.52-2.49-1.39-5.84-1.39-5.84m12.34-1.21s3.18.74 4.46 4.01.98 11.43.98 11.43-5.62-6.72-6.41-9.52c-.69-2.45.97-5.93.97-5.93Zm-17.72-1.35s-2.47.13-3.86 2.4-2.25 8.39-2.25 8.39 5.08-4.26 6.05-6.24c.84-1.73.06-4.55.06-4.55m-4.25-4.06s-1.82-.14-3.05 1.39-2.42 5.93-2.42 5.93 4.11-2.64 5-4c.78-1.19.47-3.32.47-3.32m-2.83-4.31s-1.63-.22-2.81 1.09-2.48 5.2-2.48 5.2 3.83-2.16 4.7-3.34c.76-1.03.59-2.96.59-2.96Zm28.67 5.9s2.47-.14 4.1 1.96 3.16 8.1 3.16 8.1-5.52-3.68-6.7-5.54c-1.03-1.63-.56-4.51-.56-4.51Zm2.13-4.18s1.63-.39 2.97.82 3.06 5.03 3.06 5.03-4.12-1.81-5.12-2.91c-.88-.97-.91-2.95-.91-2.95Z" class="cls-25"/><path d="M0 0h177.84v249.84H0z" class="cls-1"/><path d="m165.44 164.34-33.95 12.78-.76-28.84-.57-25.9 33.65-5.83z" class="cls-31"/><g style="clip-path:url(#clippath-5)"><circle cx="141.08" cy="127.21" r="21.34" class="cls-15"/><circle cx="141.08" cy="127.21" r="21.34" class="cls-11"/><circle cx="141.08" cy="127.21" r="18" class="cls-32"/></g><path d="m130.82 125.68 34.67 5.74v10.63l-34.67-5.74z" class="cls-19"/><path d="m130.49 125.68 36.22 5.68v2.1l-36.22-5.69z" class="cls-22"/><path d="m164.33 137.47-32.84-5.42" class="cls-16"/><path d="m164.33 137.47-.99-.17" class="cls-3"/><path d="m160.05 139.8-1.87-.31.98-5.92 1.87.31zm-4.68-.77-1.87-.31.98-5.92 1.87.31zm-4.67-.77-1.87-.31.98-5.92 1.87.31zm-4.68-.77-1.87-.31.98-5.92 1.87.31zm-4.68-.78-1.87-.31.98-5.92 1.87.31zm-4.67-.77-1.87-.31.98-5.92 1.87.31z" class="cls-33"/><path d="m132.48 132.21-.99-.16" class="cls-3"/><g style="clip-path:url(#clippath-6)"><path d="m119.82 122.57 1.46 58.69m.61-59.24 1.43 58.55m.64-59.1 1.4 58.42m.66-58.96 1.38 58.28m.69-58.83 1.35 58.14m.72-58.68 1.33 58" class="cls-4"/><path d="m120.18 166.52 11.95 4v3.8l-11.95-4zm-.99-36.11 11.95 4v3.8l-11.95-4z" class="cls-34"/></g><path id="SVGID-2" d="M77.62 180.34c0-11.61 9.3-16.16 15.67-16.16 7.32 0 22.51 6.51 23.32 18.97" class="cls-17" data-name="SVGID"/><path d="m121.62 206.54 9.6-5.86 4.04-22.2-13.98 17.59z" class="cls-28"/><path d="m119.66 217.35 10.36-.85 18.77-24.65-26.38 13.25z" class="cls-18"/><path d="m73.52 214.65-6.68-7.83-1.03-27.61 11.22 23.38z" class="cls-28"/><path d="m109.39 192.25-.29-6.33 18.13-6.66s.2 7.19 0 13.29c-.88 27.25-16.47 34.54-31.83 35.04l14-35.33Z" class="cls-27"/><path d="M98.44 227.39c13.32-4.54 15.58-23.41 13.32-42.79" class="cls-6"/><path d="M102.31 226.18c12.93-5.29 15.39-23.44 13.13-42.81" class="cls-6"/><path d="M106.19 224.96c12.54-6.05 15.2-23.47 12.94-42.84" class="cls-6"/><path d="M110.06 223.75c12.15-6.8 15.01-23.5 12.75-42.87" class="cls-6"/><path d="m90.54 229.35-10.9-5.68-5.1-6.32c-2.05-16.67-2.93-34.11.18-40.34l7.25 8.33v3.58l27.42 3.33-18.85 37.09Z" class="cls-27"/><path d="M77.05 180.06c-2.62 9.19-2.37 22.98-.56 39.27m3.11-36.87c-2.62 9.19-2.37 22.98-.56 39.27" class="cls-6"/><path d="M84.05 226.09c-1.41-.54-6.63-7.99-6.33-9.5.13-.65.5-2.33.5-2.33s.15-6 .5-9.67 2.5-14.5 2.5-14.5 5.12-4.31 6.75-5c1.32-.29 4.15-.4 6.24 0 5.84 1.58 15.18 7.17 15.18 7.17s1.01 11.83-.89 19.14c-2.8 10.82-12.58 15.69-13.61 15.69-3.63.21-7.26.84-10.83-1Z" class="cls-27"/><path d="m97.99 230.35 44.06-10.08-20.28-5.88-25.4 13.1zm-13.62.7-25.72-18.92-3.28-22.07 32.18 38.44z" class="cls-23"/><path d="m86.96 235.92-3.6-6.45 4.44-3.3 4.23 1.42.46 5.16zm9.09-4.69 9.11 3.19h21.83l-12.41-4.34-19.2-3.12z" class="cls-23"/><path d="m71.97 237.42 15.25-4.92 2.08.5-.83 1.5-5.67 2.92z" class="cls-23"/><path d="m88.47 234.5 2.25-3.5-.25-3.91 4.91-.13 5.76 5.79-5.25 3.17zm-.92-2.58-34.83-5-4.95-14.79z" class="cls-23"/><path d="m87.81 193.95 2.15-1 1.45.03 2.4 1.08-.35.19h-5.25zm8.78.96s-3.52 2.14-4.8 2.14c-.54 0-1.19-.18-2.01-.18s-1.18.03-1.58.03c-.81 0-2.06-2.05-2.06-2.05s2.51.41 4.23.41c2.92 0 6.23-.34 6.23-.34Zm8.38 22.73s-6.46 2.33-9.33 2.33c-1.49 0-2.97-1.01-3.43-1.18-.33.27-.89.39-.89.39l.43-2.97s.56 1.12 1.31 1.22c1.41.19 3.39.42 5.27.17s7.25-.96 7.25-.96l-.6.99ZM78.02 217s3 2.5 5.87 2.5c.91 0 2.27-.4 3.44-.46.74-.04 1.6.25 1.6.25l-.58-2.8s-.65.76-1.4.86c-1.41.19-3.67.51-5.55.26S77.43 216 77.43 216l.6.99Z" class="cls-19"/><path d="M88.47 218.47v-5.93c-1.99-1.75-2.33-12.26-2.33-12.26s.99-.92 2.46-.46c.97.3 2.57.42 3.43.18" class="cls-6"/><path d="M86.48 215.95s-6.9 1.52-7.85-2.64m9.02-1.75s-.89-3.91-4.98-3.99" class="cls-5"/><path d="M78.39 212.78s1.34-2.51 4.95-2.51c1.88 0 3.7.49 4.31 1.29l.15 1.44" class="cls-14"/><path d="M80.75 213.48c-.2-.46-.24-1-.06-1.52.37-1.1 1.57-1.68 2.66-1.3s1.68 1.57 1.3 2.66c-.07.21-.18.41-.31.58" class="cls-26"/><circle cx="82.67" cy="212.64" r="1.25" class="cls-19"/><path d="M87.31 214.13c.89 0 .82.01.82.01l.29-.82s-.36-.32-.88-.32c-1.8 0-2.59.57-4.33.56s-4.87-.81-5.9-1.33.39 1.09.39 1.09 3.69 1.51 6.06 1.45 2.67-.65 3.56-.65Z" class="cls-19"/><path d="M93.55 215.62s7.17 2.98 10.98-2.04m-10.64-2.19s.26-4.8 3.59-4.8" class="cls-5"/><path d="M104.25 212.83s-3.69-2.53-6.77-2.53c-1.6 0-3.07.29-3.59 1.1l-.71 2.07" class="cls-14"/><path d="M95.56 213.59c-.2-.46-.24-1-.06-1.52.37-1.1 1.57-1.68 2.66-1.3s1.68 1.57 1.3 2.66c-.07.21-.18.41-.31.58" class="cls-26"/><circle cx="97.48" cy="212.75" r="1.25" class="cls-19"/><path d="M93.27 214.21c-.89 0-1.55.24-1.55.24v-.71s.25-.54 2.04-.54 2.25.64 3.99.62 6.14-.82 7.17-1.34-.39 1.09-.39 1.09-4.46 1.73-6.83 1.67c-2.37-.05-3.54-1.04-4.43-1.04Z" class="cls-19"/><path d="M100.61 130.47c-8.21 3.84-29.96 24.93-27.92 45.95l-31.23-9.03 26.51-25.21z" class="cls-30"/><path d="M97.34 190.14c-1.34.79-3.08.34-3.87-1s-.34-3.08 1-3.87m-10 4.87c1.34.79 3.08.34 3.87-1s.34-3.08-1-3.87" class="cls-5"/><circle cx="107.83" cy="193.6" r=".72" class="cls-19"/><path d="M103.77 189.18a5.786 5.786 0 0 0-2.05 7.91 5.795 5.795 0 0 0 7.91 2.05" class="cls-5"/><path d="M109.49 203.86c-4.32 1.25-9.12-.53-11.5-4.58-2.36-4.02-1.62-9.02 1.5-12.2" class="cls-5"/><path d="M109.65 201.52c-3.58 1.44-7.78.09-9.8-3.34-2-3.4-1.18-7.67 1.75-10.12" class="cls-5"/><path d="M105.9 196.89c.71-.34 1.13-.7 1.75-1.39.13.92.28 1.46.67 2.13-.7.35-1.12.69-1.73 1.36-.13-.89-.28-1.4-.69-2.09Zm-1.79-2.82c.74.27 1.3.31 2.22.25-.56.74-.83 1.23-1.03 1.98-.75-.24-1.28-.3-2.19-.27.54-.72.79-1.19.99-1.96Zm.74-3.25c.34.71.7 1.13 1.39 1.75-.92.13-1.46.28-2.13.67-.35-.7-.69-1.12-1.36-1.73.89-.13 1.4-.28 2.09-.69Z" class="cls-19"/><path d="M80.75 192.51c.44 1.48.29 3.14-.56 4.57-.1.17-.21.34-.32.49m-1 5.99a9.98 9.98 0 0 0 5.05-4.29c2.08-3.54 1.75-7.85-.49-10.99" class="cls-5"/><path d="M79.22 201.01a7.94 7.94 0 0 0 2.84-2.83 7.92 7.92 0 0 0-.31-8.53" class="cls-5"/><path d="M64.32 165.79c1.88-1.05 2.95-2.11 4.5-4.12.52 2.48 1.05 3.91 2.23 5.67-1.84 1.09-2.93 2.1-4.47 4.01-.52-2.39-1.03-3.76-2.25-5.56Zm-12.09-3.81c1.88-1.05 2.95-2.11 4.5-4.12.52 2.48 1.05 3.91 2.23 5.67-1.84 1.09-2.93 2.1-4.47 4.01-.52-2.39-1.03-3.76-2.25-5.56Zm16.17-11.16c1.88-1.05 2.95-2.11 4.5-4.12.52 2.48 1.05 3.91 2.23 5.67-1.84 1.09-2.93 2.1-4.47 4.01-.52-2.39-1.03-3.76-2.25-5.56Zm-8.12 5.66c1.88-1.05 2.95-2.11 4.5-4.12.52 2.48 1.05 3.91 2.23 5.67-1.84 1.09-2.93 2.1-4.47 4.01-.52-2.39-1.03-3.76-2.25-5.56Z" class="cls-33"/><path d="m100.44 223.75-10.82-3.01-7.24 1.69" class="cls-5"/><path d="m98.44 225.29-8.91-2.43-5.65 1.25" class="cls-5"/><g style="clip-path:url(#clippath-7)"><path d="M141.08 167.15c-22.02 0-39.94-17.92-39.94-39.94s17.45-45.94 39.94-45.94 39.94 24.7 39.94 45.94-17.92 39.94-39.94 39.94m0-66.38c-14.58 0-26.44 11.86-26.44 26.44s11.86 26.44 26.44 26.44 26.44-11.86 26.44-26.44-11.86-26.44-26.44-26.44" class="cls-19"/><path d="M141.08 82.27c10.02 0 19.76 5.07 27.41 14.27 7.22 8.68 11.53 20.15 11.53 30.67 0 21.47-17.47 38.94-38.94 38.94s-38.94-17.47-38.94-38.94c0-10.52 4.31-21.99 11.53-30.67 7.65-9.2 17.39-14.27 27.41-14.27m0 72.37c15.13 0 27.44-12.31 27.44-27.44s-12.31-27.44-27.44-27.44-27.44 12.31-27.44 27.44 12.31 27.44 27.44 27.44m0-74.37c-22.61 0-40.94 24.33-40.94 46.94s18.33 40.94 40.94 40.94 40.94-18.33 40.94-40.94-18.33-46.94-40.94-46.94m0 72.37c-14.05 0-25.44-11.39-25.44-25.44s11.39-25.44 25.44-25.44 25.44 11.39 25.44 25.44-11.39 25.44-25.44 25.44" class="cls-33"/><path d="M141.08 168.15c22.61 0 40.94-18.33 40.94-40.94s-18.33-46.94-40.94-46.94-40.94 24.33-40.94 46.94 18.33 40.94 40.94 40.94m0-66.38c14.05 0 25.44 11.39 25.44 25.44s-11.39 25.44-25.44 25.44-25.44-11.39-25.44-25.44 11.39-25.44 25.44-25.44" class="cls-8"/><path d="M141.08 168.15c22.61 0 40.94-18.33 40.94-40.94s-18.33-46.94-40.94-46.94-40.94 24.33-40.94 46.94 18.33 40.94 40.94 40.94m0-66.38c14.05 0 25.44 11.39 25.44 25.44s-11.39 25.44-25.44 25.44-25.44-11.39-25.44-25.44 11.39-25.44 25.44-25.44" class="cls-12"/><path d="M141.08 163.97c1.28 0 2.32-1.04 2.32-2.32v-7.53h-4.64v7.53c0 1.28 1.04 2.32 2.32 2.32Z" class="cls-20"/><path d="M141.08 162.13c1.28 0 2.32-1.04 2.32-2.32v-5.64h-4.64v5.64c0 1.28 1.04 2.32 2.32 2.32Z" class="cls-20"/><path d="M141.08 160.71c.7 0 1.27-.57 1.27-1.27v-5.26h-2.54v5.26c0 .7.57 1.27 1.27 1.27" class="cls-33"/><path d="M147.47 163.41c1.26-.22 2.1-1.42 1.88-2.69l-1.31-7.41-4.57.8 1.31 7.41c.22 1.26 1.42 2.1 2.69 1.88Z" class="cls-20"/><path d="M147.15 161.6c1.26-.22 2.1-1.42 1.88-2.69l-.98-5.55-4.57.8.98 5.55c.22 1.26 1.42 2.1 2.69 1.88Z" class="cls-20"/><path d="M146.9 160.2a1.27 1.27 0 0 0 1.03-1.47l-.91-5.18-2.5.44.91 5.18c.12.69.78 1.15 1.47 1.03" class="cls-33"/><path d="M153.66 161.76a2.33 2.33 0 0 0 1.39-2.97l-2.57-7.07-4.36 1.59 2.57 7.07a2.33 2.33 0 0 0 2.97 1.39Z" class="cls-20"/><path d="M153.03 160.03a2.33 2.33 0 0 0 1.39-2.97l-1.93-5.3-4.36 1.59 1.93 5.3a2.33 2.33 0 0 0 2.97 1.39Z" class="cls-20"/><path d="M152.54 158.69c.66-.24 1-.97.76-1.63l-1.8-4.94-2.38.87 1.8 4.94c.24.66.97 1 1.63.76Z" class="cls-33"/><path d="M159.47 159.05c1.11-.64 1.49-2.06.85-3.17l-3.76-6.52-4.01 2.32 3.76 6.52a2.32 2.32 0 0 0 3.17.85Z" class="cls-20"/><path d="M158.55 157.45c1.11-.64 1.49-2.06.85-3.17l-2.82-4.88-4.01 2.32 2.82 4.88a2.32 2.32 0 0 0 3.17.85Z" class="cls-20"/><path d="M157.83 156.22c.61-.35.81-1.13.46-1.73l-2.63-4.55-2.2 1.27 2.63 4.55c.35.61 1.13.81 1.73.46Z" class="cls-33"/><path d="M164.71 155.37c.98-.82 1.11-2.28.29-3.27l-4.84-5.77-3.55 2.98 4.84 5.77c.82.98 2.28 1.11 3.27.29Z" class="cls-20"/><path d="M163.53 153.96c.98-.82 1.11-2.28.29-3.27l-3.62-4.32-3.55 2.98 3.62 4.32c.82.98 2.28 1.11 3.27.29Z" class="cls-20"/><path d="M162.62 152.87c.54-.45.61-1.25.16-1.79l-3.38-4.03-1.94 1.63 3.38 4.03c.45.54 1.25.61 1.79.16Z" class="cls-33"/><path d="M169.25 150.84c.82-.98.69-2.44-.29-3.27l-5.77-4.84-2.98 3.55 5.77 4.84c.98.82 2.44.69 3.27-.29Z" class="cls-20"/><path d="M167.84 149.66c.82-.98.69-2.44-.29-3.27l-4.32-3.62-2.98 3.55 4.32 3.62c.98.82 2.44.69 3.27-.29Z" class="cls-20"/><path d="M166.74 148.74c.45-.54.38-1.34-.16-1.79l-4.03-3.38-1.63 1.94 4.03 3.38c.54.45 1.34.38 1.79-.16Z" class="cls-33"/><path d="M172.92 145.59c.64-1.11.26-2.53-.85-3.17l-6.52-3.76-2.32 4.01 6.52 3.76c1.11.64 2.53.26 3.17-.85Z" class="cls-20"/><path d="M171.33 144.67c.64-1.11.26-2.53-.85-3.17l-4.88-2.82-2.32 4.01 4.88 2.82c1.11.64 2.53.26 3.17-.85Z" class="cls-20"/><path d="M170.09 143.96c.35-.61.14-1.38-.46-1.73l-4.55-2.63-1.27 2.2 4.55 2.63c.61.35 1.38.14 1.73-.46Z" class="cls-33"/><path d="M175.63 139.78c.44-1.2-.18-2.53-1.39-2.97l-7.07-2.57-1.59 4.36 7.07 2.57c1.2.44 2.53-.18 2.97-1.39Z" class="cls-20"/><path d="M173.9 139.15c.44-1.2-.18-2.53-1.39-2.97l-5.3-1.93-1.59 4.36 5.3 1.93c1.2.44 2.53-.18 2.97-1.39Z" class="cls-20"/><path d="M172.56 138.67c.24-.66-.1-1.39-.76-1.63l-4.94-1.8-.87 2.38 4.94 1.8c.66.24 1.39-.1 1.63-.76Z" class="cls-33"/><path d="M177.29 133.59a2.33 2.33 0 0 0-1.88-2.69l-7.41-1.31-.8 4.57 7.41 1.31a2.33 2.33 0 0 0 2.69-1.88Z" class="cls-20"/><path d="M175.48 133.27a2.33 2.33 0 0 0-1.88-2.69l-5.55-.98-.8 4.57 5.55.98a2.33 2.33 0 0 0 2.69-1.88Z" class="cls-20"/><path d="M174.07 133.02a1.27 1.27 0 0 0-1.03-1.47l-5.18-.91-.44 2.5 5.18.91c.69.12 1.35-.34 1.47-1.03" class="cls-33"/><path d="M177.85 127.21c0-1.28-1.04-2.32-2.32-2.32H168v4.64h7.53c1.28 0 2.32-1.04 2.32-2.32Z" class="cls-20"/><path d="M176.01 127.21c0-1.28-1.04-2.32-2.32-2.32h-5.64v4.64h5.64c1.28 0 2.32-1.04 2.32-2.32Z" class="cls-20"/><path d="M174.58 127.21c0-.7-.57-1.27-1.27-1.27h-5.26v2.54h5.26c.7 0 1.27-.57 1.27-1.27" class="cls-33"/><path d="M177.29 120.82a2.32 2.32 0 0 0-2.69-1.88l-7.41 1.31.8 4.57 7.41-1.31c1.26-.22 2.1-1.42 1.88-2.69Z" class="cls-20"/><path d="M175.48 121.14a2.32 2.32 0 0 0-2.69-1.88l-5.55.98.8 4.57 5.55-.98c1.26-.22 2.1-1.42 1.88-2.69Z" class="cls-20"/><path d="M174.07 121.39a1.27 1.27 0 0 0-1.47-1.03l-5.18.91.44 2.5 5.18-.91a1.27 1.27 0 0 0 1.03-1.47" class="cls-33"/><path d="M175.63 114.63a2.33 2.33 0 0 0-2.97-1.39l-7.07 2.57 1.59 4.36 7.07-2.57a2.33 2.33 0 0 0 1.39-2.97Z" class="cls-20"/><path d="M173.9 115.26a2.33 2.33 0 0 0-2.97-1.39l-5.3 1.93 1.59 4.36 5.3-1.93a2.33 2.33 0 0 0 1.39-2.97Z" class="cls-20"/><path d="M172.56 115.75c-.24-.66-.97-1-1.63-.76l-4.94 1.8.87 2.38 4.94-1.8c.66-.24 1-.97.76-1.63Z" class="cls-33"/><path d="M172.92 108.83a2.32 2.32 0 0 0-3.17-.85l-6.52 3.76 2.32 4.01 6.52-3.76c1.11-.64 1.49-2.06.85-3.17Z" class="cls-20"/><path d="M171.33 109.75a2.32 2.32 0 0 0-3.17-.85l-4.88 2.82 2.32 4.01 4.88-2.82c1.11-.64 1.49-2.06.85-3.17Z" class="cls-20"/><path d="M170.09 110.46c-.35-.61-1.13-.81-1.73-.46l-4.55 2.63 1.27 2.2 4.55-2.63c.61-.35.81-1.13.46-1.73Z" class="cls-33"/><path d="M169.25 103.58a2.326 2.326 0 0 0-3.27-.29l-5.77 4.84 2.98 3.55 5.77-4.84c.98-.82 1.11-2.28.29-3.27Z" class="cls-20"/><path d="M167.84 104.76a2.326 2.326 0 0 0-3.27-.29l-4.32 3.62 2.98 3.55 4.32-3.62c.98-.82 1.11-2.28.29-3.27Z" class="cls-20"/><path d="M166.74 105.68a1.27 1.27 0 0 0-1.79-.16l-4.03 3.38 1.63 1.94 4.03-3.38c.54-.45.61-1.25.16-1.79Z" class="cls-33"/><path d="M164.71 99.05c-.98-.82-2.44-.69-3.27.29l-4.84 5.77 3.55 2.98 4.84-5.77c.82-.98.69-2.44-.29-3.27Z" class="cls-20"/><path d="M163.53 100.45c-.98-.82-2.44-.69-3.27.29l-3.62 4.32 3.55 2.98 3.62-4.32c.82-.98.69-2.44-.29-3.27Z" class="cls-20"/><path d="M162.62 101.55a1.27 1.27 0 0 0-1.79.16l-3.38 4.03 1.94 1.63 3.38-4.03c.45-.54.38-1.34-.16-1.79Z" class="cls-33"/><path d="M159.47 95.37a2.32 2.32 0 0 0-3.17.85l-3.76 6.52 4.01 2.32 3.76-6.52c.64-1.11.26-2.53-.85-3.17Z" class="cls-20"/><path d="M158.55 96.96a2.32 2.32 0 0 0-3.17.85l-2.82 4.88 4.01 2.32 2.82-4.88c.64-1.11.26-2.53-.85-3.17Z" class="cls-20"/><path d="M157.83 98.2a1.27 1.27 0 0 0-1.73.46l-2.63 4.55 2.2 1.27 2.63-4.55c.35-.61.14-1.38-.46-1.73Z" class="cls-33"/><path d="M153.66 92.66c-1.2-.44-2.53.18-2.97 1.39l-2.57 7.07 4.36 1.59 2.57-7.07c.44-1.2-.18-2.53-1.39-2.97Z" class="cls-20"/><path d="M153.03 94.39c-1.2-.44-2.53.18-2.97 1.39l-1.93 5.3 4.36 1.59 1.93-5.3c.44-1.2-.18-2.53-1.39-2.97Z" class="cls-20"/><path d="M152.54 95.73c-.66-.24-1.39.1-1.63.76l-1.8 4.94 2.38.87 1.8-4.94c.24-.66-.1-1.39-.76-1.63Z" class="cls-33"/><path d="M147.47 91a2.33 2.33 0 0 0-2.69 1.88l-1.31 7.41 4.57.8 1.31-7.41a2.33 2.33 0 0 0-1.88-2.69Z" class="cls-20"/><path d="M147.15 92.81a2.33 2.33 0 0 0-2.69 1.88l-.98 5.55 4.57.8.98-5.55a2.33 2.33 0 0 0-1.88-2.69Z" class="cls-20"/><path d="M146.9 94.22a1.27 1.27 0 0 0-1.47 1.03l-.91 5.18 2.5.44.91-5.18a1.27 1.27 0 0 0-1.03-1.47" class="cls-33"/><path d="M141.08 90.44c-1.28 0-2.32 1.04-2.32 2.32v7.53h4.64v-7.53c0-1.28-1.04-2.32-2.32-2.32Z" class="cls-20"/><path d="M141.08 92.28c-1.28 0-2.32 1.04-2.32 2.32v5.64h4.64V94.6c0-1.28-1.04-2.32-2.32-2.32Z" class="cls-20"/><path d="M141.08 93.71c-.7 0-1.27.57-1.27 1.27v5.26h2.54v-5.26c0-.7-.57-1.27-1.27-1.27" class="cls-33"/><path d="M134.7 91c-1.26.22-2.1 1.42-1.88 2.69l1.31 7.41 4.57-.8-1.31-7.41a2.32 2.32 0 0 0-2.69-1.88Z" class="cls-20"/><path d="M135.02 92.81c-1.26.22-2.1 1.42-1.88 2.69l.98 5.55 4.57-.8-.98-5.55a2.32 2.32 0 0 0-2.69-1.88Z" class="cls-20"/><path d="M135.27 94.22c-.69.12-1.15.78-1.03 1.47l.91 5.18 2.5-.44-.91-5.18a1.27 1.27 0 0 0-1.47-1.03" class="cls-33"/><path d="M128.51 92.66a2.33 2.33 0 0 0-1.39 2.97l2.57 7.07 4.36-1.59-2.57-7.07a2.33 2.33 0 0 0-2.97-1.39Z" class="cls-20"/><path d="M129.14 94.39a2.33 2.33 0 0 0-1.39 2.97l1.93 5.3 4.36-1.59-1.93-5.3a2.33 2.33 0 0 0-2.97-1.39Z" class="cls-20"/><path d="M129.63 95.73c-.66.24-1 .97-.76 1.63l1.8 4.94 2.38-.87-1.8-4.94c-.24-.66-.97-1-1.63-.76Z" class="cls-33"/><path d="M122.7 95.37a2.32 2.32 0 0 0-.85 3.17l3.76 6.52 4.01-2.32-3.76-6.52a2.32 2.32 0 0 0-3.17-.85Z" class="cls-20"/><path d="M123.62 96.96a2.32 2.32 0 0 0-.85 3.17l2.82 4.88 4.01-2.32-2.82-4.88a2.32 2.32 0 0 0-3.17-.85Z" class="cls-20"/><path d="M124.33 98.2c-.61.35-.81 1.13-.46 1.73l2.63 4.55 2.2-1.27-2.63-4.55c-.35-.61-1.13-.81-1.73-.46Z" class="cls-33"/><path d="M117.45 99.05c-.98.82-1.11 2.28-.29 3.27l4.84 5.77 3.55-2.98-4.84-5.77a2.326 2.326 0 0 0-3.27-.29Z" class="cls-20"/><path d="M118.63 100.45c-.98.82-1.11 2.28-.29 3.27l3.62 4.32 3.55-2.98-3.62-4.32a2.326 2.326 0 0 0-3.27-.29Z" class="cls-20"/><path d="M119.55 101.55a1.27 1.27 0 0 0-.16 1.79l3.38 4.03 1.94-1.63-3.38-4.03a1.27 1.27 0 0 0-1.79-.16Z" class="cls-33"/><path d="M112.92 103.58c-.82.98-.69 2.44.29 3.27l5.77 4.84 2.98-3.55-5.77-4.84c-.98-.82-2.44-.69-3.27.29Z" class="cls-20"/><path d="M114.33 104.76c-.82.98-.69 2.44.29 3.27l4.32 3.62 2.98-3.55-4.32-3.62c-.98-.82-2.44-.69-3.27.29Z" class="cls-20"/><path d="M115.42 105.68c-.45.54-.38 1.34.16 1.79l4.03 3.38 1.63-1.94-4.03-3.38a1.27 1.27 0 0 0-1.79.16Z" class="cls-33"/><path d="M109.24 108.83c-.64 1.11-.26 2.53.85 3.17l6.52 3.76 2.32-4.01-6.52-3.76a2.32 2.32 0 0 0-3.17.85Z" class="cls-20"/><path d="M110.84 109.75c-.64 1.11-.26 2.53.85 3.17l4.88 2.82 2.32-4.01-4.88-2.82a2.32 2.32 0 0 0-3.17.85Z" class="cls-20"/><path d="M112.07 110.46c-.35.61-.14 1.38.46 1.73l4.55 2.63 1.27-2.2-4.55-2.63a1.27 1.27 0 0 0-1.73.46Z" class="cls-33"/><path d="M106.54 114.63c-.44 1.2.18 2.53 1.39 2.97l7.07 2.57 1.59-4.36-7.07-2.57c-1.2-.44-2.53.18-2.97 1.39Z" class="cls-20"/><path d="M108.27 115.26c-.44 1.2.18 2.53 1.39 2.97l5.3 1.93 1.59-4.36-5.3-1.93c-1.2-.44-2.53.18-2.97 1.39Z" class="cls-20"/><path d="M109.61 115.75c-.24.66.1 1.39.76 1.63l4.94 1.8.87-2.38-4.94-1.8c-.66-.24-1.39.1-1.63.76Z" class="cls-33"/><path d="M104.88 120.82a2.33 2.33 0 0 0 1.88 2.69l7.41 1.31.8-4.57-7.41-1.31a2.33 2.33 0 0 0-2.69 1.88Z" class="cls-20"/><path d="M106.69 121.14a2.33 2.33 0 0 0 1.88 2.69l5.55.98.8-4.57-5.55-.98a2.33 2.33 0 0 0-2.69 1.88Z" class="cls-20"/><path d="M108.09 121.39c-.12.69.34 1.35 1.03 1.47l5.18.91.44-2.5-5.18-.91a1.27 1.27 0 0 0-1.47 1.03" class="cls-33"/><path d="M104.32 127.21c0 1.28 1.04 2.32 2.32 2.32h7.53v-4.64h-7.53c-1.28 0-2.32 1.04-2.32 2.32Z" class="cls-20"/><path d="M106.16 127.21c0 1.28 1.04 2.32 2.32 2.32h5.64v-4.64h-5.64c-1.28 0-2.32 1.04-2.32 2.32Z" class="cls-20"/><path d="M107.59 127.21c0 .7.57 1.27 1.27 1.27h5.26v-2.54h-5.26c-.7 0-1.27.57-1.27 1.27" class="cls-33"/><path d="M104.88 133.59c.22 1.26 1.42 2.1 2.69 1.88l7.41-1.31-.8-4.57-7.41 1.31c-1.26.22-2.1 1.42-1.88 2.69Z" class="cls-20"/><path d="M106.69 133.27c.22 1.26 1.42 2.1 2.69 1.88l5.55-.98-.8-4.57-5.55.98c-1.26.22-2.1 1.42-1.88 2.69Z" class="cls-20"/><path d="M108.09 133.02c.12.69.78 1.15 1.47 1.03l5.18-.91-.44-2.5-5.18.91c-.69.12-1.15.78-1.03 1.47" class="cls-33"/><path d="M106.54 139.78a2.33 2.33 0 0 0 2.97 1.39l7.07-2.57-1.59-4.36-7.07 2.57a2.33 2.33 0 0 0-1.39 2.97Z" class="cls-20"/><path d="M108.27 139.15a2.33 2.33 0 0 0 2.97 1.39l5.3-1.93-1.59-4.36-5.3 1.93a2.33 2.33 0 0 0-1.39 2.97Z" class="cls-20"/><path d="M109.61 138.67c.24.66.97 1 1.63.76l4.94-1.8-.87-2.38-4.94 1.8c-.66.24-1 .97-.76 1.63Z" class="cls-33"/><path d="M109.24 145.59a2.32 2.32 0 0 0 3.17.85l6.52-3.76-2.32-4.01-6.52 3.76a2.32 2.32 0 0 0-.85 3.17Z" class="cls-20"/><path d="M110.84 144.67a2.32 2.32 0 0 0 3.17.85l4.88-2.82-2.32-4.01-4.88 2.82a2.32 2.32 0 0 0-.85 3.17Z" class="cls-20"/><path d="M112.07 143.96c.35.61 1.13.81 1.73.46l4.55-2.63-1.27-2.2-4.55 2.63c-.61.35-.81 1.13-.46 1.73Z" class="cls-33"/><path d="M112.92 150.84c.82.98 2.28 1.11 3.27.29l5.77-4.84-2.98-3.55-5.77 4.84c-.98.82-1.11 2.28-.29 3.27Z" class="cls-20"/><path d="M114.33 149.66c.82.98 2.28 1.11 3.27.29l4.32-3.62-2.98-3.55-4.32 3.62c-.98.82-1.11 2.28-.29 3.27Z" class="cls-20"/><path d="M115.42 148.74c.45.54 1.25.61 1.79.16l4.03-3.38-1.63-1.94-4.03 3.38a1.27 1.27 0 0 0-.16 1.79Z" class="cls-33"/><path d="M117.45 155.37c.98.82 2.44.69 3.27-.29l4.84-5.77-3.55-2.98-4.84 5.77c-.82.98-.69 2.44.29 3.27Z" class="cls-20"/><path d="M118.63 153.96c.98.82 2.44.69 3.27-.29l3.62-4.32-3.55-2.98-3.62 4.32c-.82.98-.69 2.44.29 3.27Z" class="cls-20"/><path d="M119.55 152.87c.54.45 1.34.38 1.79-.16l3.38-4.03-1.94-1.63-3.38 4.03c-.45.54-.38 1.34.16 1.79Z" class="cls-33"/><path d="M122.7 159.05c1.11.64 2.53.26 3.17-.85l3.76-6.52-4.01-2.32-3.76 6.52c-.64 1.11-.26 2.53.85 3.17Z" class="cls-20"/><path d="M123.62 157.45c1.11.64 2.53.26 3.17-.85l2.82-4.88-4.01-2.32-2.82 4.88c-.64 1.11-.26 2.53.85 3.17Z" class="cls-20"/><path d="M124.33 156.22c.61.35 1.38.14 1.73-.46l2.63-4.55-2.2-1.27-2.63 4.55c-.35.61-.14 1.38.46 1.73Z" class="cls-33"/><path d="M128.51 161.76c1.2.44 2.53-.18 2.97-1.39l2.57-7.07-4.36-1.59-2.57 7.07c-.44 1.2.18 2.53 1.39 2.97Z" class="cls-20"/><path d="M129.14 160.03c1.2.44 2.53-.18 2.97-1.39l1.93-5.3-4.36-1.59-1.93 5.3c-.44 1.2.18 2.53 1.39 2.97Z" class="cls-20"/><path d="M129.63 158.69c.66.24 1.39-.1 1.63-.76l1.8-4.94-2.38-.87-1.8 4.94c-.24.66.1 1.39.76 1.63Z" class="cls-33"/><path d="M134.7 163.41a2.33 2.33 0 0 0 2.69-1.88l1.31-7.41-4.57-.8-1.31 7.41a2.33 2.33 0 0 0 1.88 2.69Z" class="cls-20"/><path d="M135.02 161.6a2.33 2.33 0 0 0 2.69-1.88l.98-5.55-4.57-.8-.98 5.55a2.33 2.33 0 0 0 1.88 2.69Z" class="cls-20"/><path d="M135.27 160.2c.69.12 1.35-.34 1.47-1.03l.91-5.18-2.5-.44-.91 5.18c-.12.69.34 1.35 1.03 1.47" class="cls-33"/></g><path d="M165.59 113.41c-50.93 0-99.28 17.95-131.93 51.72l6.59 1.84c31.72-34.56 81.04-47.05 124.1-47.05l1.24-6.52Z" class="cls-25"/><path d="M165.59 115.82c-50.93 0-96.31 15.78-129.95 49.89l5.82 1.68c31.72-34.56 79.82-45.05 122.89-45.05z" class="cls-23"/><path d="M77.62 180.34c0-11.61 9.42-16.41 16.19-16.41 8.09 0 21.44 6.76 23.25 19.06l-7.96 2.93-12.26-4.13H87.6l-5.63 3.54z" class="cls-33"/><path d="M113.47 185.27c-1.68-6.45-8.12-16.82-19.66-16.8-7.86 0-12.82 6.11-14.32 14.39" class="cls-2" style="clip-path:url(#clippath-8)"/><path d="M77.62 180.34c0-11.61 9.42-16.41 16.19-16.41 8.09 0 21.44 6.76 23.25 19.06l-7.96 2.93-12.26-4.13H87.6l-5.63 3.54z" class="cls-13"/><path d="M93.81 172.19c11.4 0 15.43 13.67 15.43 13.67l-12.41-4.07h-9.24l-5.63 3.54s.44-13.15 11.84-13.15Z" class="cls-19"/><path d="M92.08 168.51s3.8-2.42 3.97-7.26-3.97-15.32-3.97-15.32-4.23 11.32-3.98 15.32c.22 3.5 3.98 7.26 3.98 7.26m6.93.7s3.12-.96 4.17-4.32.16-11.47.16-11.47-5.13 7.11-5.72 9.95c-.52 2.49 1.39 5.84 1.39 5.84m-12.34 1.21s-3.18-.74-4.46-4.01-.98-11.43-.98-11.43 5.62 6.72 6.41 9.52c.69 2.45-.97 5.93-.97 5.93Zm17.72 1.35s2.47-.13 3.86-2.4 2.25-8.39 2.25-8.39-5.08 4.26-6.05 6.24c-.84 1.73-.06 4.55-.06 4.55m4.25 4.06s1.82.14 3.05-1.39 2.42-5.93 2.42-5.93-4.11 2.64-5 4c-.78 1.19-.47 3.32-.47 3.32m2.83 4.31s1.63.22 2.81-1.09 2.48-5.2 2.48-5.2-3.83 2.16-4.7 3.34c-.76 1.03-.59 2.96-.59 2.96Zm-28.67-5.9s-2.47.14-4.1-1.96-3.16-8.1-3.16-8.1 5.52 3.68 6.7 5.54c1.03 1.63.56 4.51.56 4.51Zm-2.13 4.18s-1.63.39-2.97-.82-3.06-5.03-3.06-5.03 4.12 1.81 5.12 2.91c.88.97.91 2.95.91 2.95Z" class="cls-25"/><path d="M0 0h177.84v249.84H0z" class="cls-1"/><path d="m63.5 102.88-4.43 13.66-17.47 80.92c-1.66.07-1.97-4.39-3.29-3.61l16.7-77.98 1.61-15 6.88 2.02Z" class="cls-27"/><path d="m45.665 185.128-6.395-1.631.746-2.926 6.396 1.63z" class="cls-21"/><path d="m59.708 119.28-6.395-1.631.746-2.927 6.395 1.632z" class="cls-23"/><path d="m58.885 122.526-6.395-1.631.747-2.927 6.395 1.632z" class="cls-28"/><ellipse cx="47.32" cy="165.99" class="cls-19" rx="1.45" ry=".76" transform="rotate(-78.15 47.31 165.982)"/><ellipse cx="46.51" cy="170.75" class="cls-19" rx="1.45" ry=".76" transform="rotate(-78.15 46.497 170.747)"/><ellipse cx="45.46" cy="175.72" class="cls-19" rx="1.45" ry=".76" transform="rotate(-78.15 45.456 175.716)"/><ellipse cx="48.5" cy="161.26" class="cls-19" rx="1.45" ry=".76" transform="rotate(-78.15 48.488 161.247)"/><ellipse cx="49.56" cy="156.19" class="cls-19" rx="1.45" ry=".76" transform="rotate(-78.15 49.553 156.186)"/><ellipse cx="50.61" cy="151.08" class="cls-19" rx="1.45" ry=".76" transform="rotate(-78.15 50.596 151.076)"/><path d="m48.57 179.62-1.06-.18-2.26 8.62 1.87.3z" class="cls-21"/><path d="m46.34 183.9-6.74-1.78m.4-1.55c.68-9.61-.9-15.49-3.65-20.96" class="cls-6"/><path d="M39.6 182.12c.68-9.61-1.49-14.07-4.24-19.54" class="cls-6"/><path d="M34.46 158.69c-.8-1.94-.73-2.97-.09-3.23s1.63.33 2.43 2.27 1 5.4 1 5.4-2.53-2.49-3.34-4.43Z" class="cls-21"/><path d="M34.5 163.59c-.71-1.72-.65-2.62-.08-2.86s1.44.29 2.15 2 .88 4.78.88 4.78-2.24-2.2-2.95-3.92" class="cls-29"/><path d="m19.95 164.23 27.87-17.59L19.5 93.28z" class="cls-30"/><path d="m17.83 165.56 27.87-17.59-27.32-51.68z" class="cls-25"/><path d="m11.54 169.21 27.87-17.59L12.1 99.94z" class="cls-28"/><path d="M51.09 146.8c1.39 0 6.26-2.75 7.15-3.27s2.19-4.3 2.19-4.3l1.42-6-.94-3.4s1.57-5.17.66-5.66-1.98-.14-1.98-.14l-.45 1.03s-.43-1.71-2.04-1.28-4.45 4.64-4.45 4.64l-6.29 2.1-5.61 2.91 6.54 13.31 3.79.07" class="cls-25"/><path d="M60.92 129.83s-1.64 3.32-2.37 4.36-4.2 2.82-4.2 2.82m7.5-3.78s-1.54 4.46-1.97 5.02-5.26 3.02-5.26 3.02m4.53-16.21s-2.1 4.67-2.75 5.42-3.52 2.38-3.52 2.38l-1.79.69" class="cls-14"/><path d="M57.11 128.48c-.71-2.12.5-4.24 1.13-4.24m2.68 4.41c-1.04-1.72-.55-4.41-.27-4.41" class="cls-7"/><path d="m114.34 146.96 4.43-13.66 17.47-80.92c1.66-.07 1.97 4.39 3.29 3.61l-16.7 77.98-1.61 15-6.88-2.02Z" class="cls-27"/><path d="m132.186 64.735 6.395 1.631-.746 2.927-6.395-1.632z" class="cls-21"/><path d="m118.119 130.567 6.395 1.631-.747 2.927-6.395-1.632z" class="cls-23"/><path d="m118.956 127.313 6.395 1.631-.746 2.927-6.395-1.632z" class="cls-28"/><ellipse cx="130.52" cy="83.85" class="cls-19" rx="1.45" ry=".76" transform="rotate(-78.15 130.512 83.848)"/><ellipse cx="131.33" cy="79.09" class="cls-19" rx="1.45" ry=".76" transform="rotate(-78.15 131.32 79.09)"/><ellipse cx="132.38" cy="74.12" class="cls-19" rx="1.45" ry=".76" transform="rotate(-78.15 132.366 74.114)"/><ellipse cx="129.34" cy="88.58" class="cls-19" rx="1.45" ry=".76" transform="rotate(-78.15 129.334 88.583)"/><ellipse cx="128.28" cy="93.65" class="cls-19" rx="1.45" ry=".76" transform="rotate(-78.15 128.269 93.645)"/><ellipse cx="127.23" cy="98.76" class="cls-19" rx="1.45" ry=".76" transform="rotate(-78.15 127.221 98.76)"/><path d="m129.27 70.22 1.06.18 2.26-8.62-1.87-.3z" class="cls-21"/><path d="m131.5 65.94 6.74 1.78m-.4 1.55c-.68 9.61.9 15.49 3.65 20.96" class="cls-6"/><path d="M138.24 67.72c-.68 9.61 1.49 14.07 4.24 19.54" class="cls-6"/><path d="M143.38 91.15c.8 1.94.73 2.97.09 3.23s-1.63-.33-2.43-2.27-1-5.4-1-5.4 2.53 2.49 3.34 4.43Z" class="cls-21"/><path d="M143.34 86.25c.71 1.72.65 2.62.08 2.86s-1.44-.29-2.15-2-.88-4.78-.88-4.78 2.24 2.2 2.95 3.92" class="cls-29"/><path d="m157.89 85.61-27.87 17.59 28.32 53.36z" class="cls-30"/><path d="m160.01 84.28-27.87 17.59 27.32 51.68z" class="cls-25"/><path d="m166.3 80.63-27.87 17.59 27.31 51.68z" class="cls-28"/><path d="M126.75 103.04c-1.39 0-6.26 2.75-7.15 3.27s-2.19 4.3-2.19 4.3l-1.42 6 .94 3.4s-1.57 5.17-.66 5.66 1.98.14 1.98.14l.45-1.03s.43 1.71 2.04 1.28 4.45-4.64 4.45-4.64l6.29-2.1 5.61-2.91-6.54-13.31-3.79-.07" class="cls-25"/><path d="M116.92 120.01s1.64-3.32 2.37-4.36 4.2-2.82 4.2-2.82m-7.5 3.78s1.54-4.46 1.97-5.02 5.26-3.02 5.26-3.02m-4.53 16.21s2.1-4.67 2.75-5.42 3.52-2.38 3.52-2.38l1.79-.69" class="cls-14"/><path d="M120.73 121.36c.71 2.12-.5 4.24-1.13 4.24m-2.68-4.41c1.04 1.72.55 4.41.27 4.41" class="cls-7"/></g><path id="graphics" d="M27.66 54.35c-3.81 3.46-5.75 6.51-8.26 12.01-2.54-5.51-4.54-8.56-8.23-12.01 3.7-3.54 5.7-6.45 8.26-11.74 2.48 5.29 4.43 8.21 8.23 11.74m122.52 141.14c3.81-3.46 5.75-6.5 8.26-12.01 2.54 5.51 4.54 8.56 8.23 12.01-3.7 3.54-5.7 6.45-8.26 11.74-2.48-5.29-4.43-8.21-8.23-11.74m16.52 17.6v2.64h-2.39v17.98h2.39v2.64h-7.66v-2.64h1.98v-8.5c-.25.03-.5.06-.77.09l-4.34 8.4h1.67v2.64h-6.95v-2.64h1.83l4.4-8.31c-2.02-.12-3.91-1.08-3.91-4.4v-5.36h-2.82v-2.54h6.05v6.92c0 2.45.84 3.04 2.11 3.04 1.02 0 2.05-.09 2.73-.19v-7.13h-2.48v-2.64zM11.14 36.75v-2.64h2.39V16.13h-2.39v-2.64h7.66v2.64h-1.98v8.5c.25-.03.5-.06.77-.09l4.34-8.4h-1.67V13.5h6.95v2.64h-1.83l-4.4 8.31c2.02.12 3.91 1.08 3.91 4.4v5.36h2.82v2.54h-6.05v-6.92c0-2.45-.84-3.04-2.11-3.04-1.02 0-2.05.09-2.73.19v7.13h2.48v2.64z" class="cls-35"/><path id="large_symbols" d="M12.44 217.66c7.05-6.4 10.65-12.05 15.3-22.25 4.7 10.2 8.4 15.85 15.25 22.25-6.85 6.55-10.55 11.95-15.3 21.75-4.6-9.8-8.2-15.2-15.25-21.75M165.4 32.18c-7.05 6.4-10.65 12.05-15.3 22.25-4.7-10.2-8.4-15.85-15.25-22.25 6.85-6.55 10.55-11.95 15.3-21.75 4.6 9.8 8.2 15.2 15.25 21.75" class="cls-35" data-name="large symbols"/><g id="rules"><path d="M136.81 18.42H32.22m-12.8 53.42v128.08m21.61 31.5h104.59m12.8-53.42V49.92" style="fill:none;stroke:#004a98;stroke-linecap:round;stroke-miterlimit:10;stroke-width:2px"/><path d="M0 0h177.84v249.84H0z" class="cls-1"/></g></svg>